<svg version="1.1" id="Layer_1" xmlns="http://www.w3.org/2000/svg" xmlns:xlink="http://www.w3.org/1999/xlink" x="0px" y="0px"
	 width="100%" viewBox="0 0 512 512" enable-background="new 0 0 512 512" xml:space="preserve">
<path fill="#01AC02" opacity="1.000000" stroke="none" 
	d="
M1.000000,199.000000 
	C1.000000,132.666672 1.000000,66.833336 1.000000,1.000000 
	C171.666672,1.000000 342.333344,1.000000 513.000000,1.000000 
	C513.000000,171.666672 513.000000,342.333344 513.000000,513.000000 
	C342.333344,513.000000 171.666672,513.000000 1.000000,513.000000 
	C1.000000,408.500000 1.000000,304.000000 1.000000,199.000000 
M472.425323,210.566132 
	C471.930176,210.269043 471.434998,209.971954 470.613739,209.197937 
	C470.444153,209.106674 470.274536,209.015427 469.898987,208.292038 
	C467.250214,206.928818 464.601440,205.565598 461.330475,203.956741 
	C460.690796,203.761368 460.051117,203.565979 459.503998,202.693619 
	C456.993622,202.207458 454.483246,201.721283 451.182251,201.080017 
	C449.843414,200.994965 448.504578,200.909912 446.863251,200.184158 
	C440.445709,198.022415 434.062561,196.840683 427.140808,200.839218 
	C426.425781,200.921417 425.710724,201.003601 424.442963,200.583084 
	C410.907715,201.258514 401.516785,208.689774 395.565094,220.037811 
	C391.947815,226.934921 389.901886,234.764786 387.953247,242.381119 
	C387.023499,246.015106 387.964813,250.127823 387.975677,254.950714 
	C387.996033,277.296539 388.016388,299.642395 387.483124,322.596222 
	C386.317017,333.721985 389.544281,344.091614 393.965271,353.920502 
	C401.193451,369.990448 414.899628,376.746124 431.811005,377.354095 
	C440.177460,377.654907 448.488586,377.917999 456.874756,375.045380 
	C466.365753,371.794373 473.704712,366.612427 478.583130,358.067963 
	C486.190094,344.744537 487.302521,330.093231 486.758759,315.162781 
	C486.636566,311.807434 484.888916,310.440338 481.651917,310.466797 
	C475.656616,310.515808 469.660553,310.460510 463.664856,310.469452 
	C456.187988,310.480560 456.163971,311.023010 455.507660,318.301697 
	C454.753418,326.666962 453.628662,335.094757 451.567322,343.216888 
	C449.804138,350.164124 445.099365,352.715942 437.758606,352.749908 
	C430.061005,352.785522 424.563873,349.840393 422.688354,343.129761 
	C420.474548,335.208649 418.261200,327.013611 417.999298,318.874573 
	C417.340790,298.410248 417.567749,277.907166 417.895966,257.426971 
	C418.009705,250.328873 419.021179,243.159775 420.466461,236.198303 
	C421.437439,231.521408 424.253662,227.755707 428.827087,225.027573 
	C433.787659,222.068497 438.705078,222.852158 444.132568,223.662125 
	C451.354004,227.477478 454.173126,233.708420 454.365967,241.617264 
	C454.475128,246.094635 454.998688,250.582382 455.677002,255.013184 
	C455.887115,256.385559 457.220123,257.586060 458.664734,259.393402 
	C466.621399,259.487030 474.577850,259.607666 482.534790,259.657776 
	C484.910553,259.672729 486.990509,259.196350 486.415558,255.148727 
	C486.345825,253.460617 486.276123,251.772522 486.532013,249.347412 
	C485.527313,242.684738 485.484619,235.676193 483.248383,229.456299 
	C480.994507,223.187271 476.562225,217.701462 472.809906,211.374466 
	C472.652283,211.269409 472.494690,211.164368 472.425323,210.566132 
M62.648365,437.588257 
	C62.719025,438.017609 62.789688,438.446991 62.778404,438.807404 
	C62.778404,438.807404 62.671772,438.797546 61.996212,439.144257 
	C61.877968,450.272797 61.697388,461.401672 61.751530,472.529358 
	C61.756214,473.492401 63.311546,474.447845 64.803299,475.608002 
	C65.475945,475.529907 66.148598,475.451813 67.456223,475.583862 
	C68.686729,474.805145 69.917236,474.026428 71.735283,473.120880 
	C72.121353,473.016205 72.507416,472.911530 73.526283,473.178589 
	C74.012802,473.150665 74.499313,473.122742 75.602440,473.459839 
	C78.141342,472.693237 80.680252,471.926666 83.843788,470.871368 
	C83.971275,470.680634 84.098755,470.489929 84.845497,470.298065 
	C85.454361,470.194214 86.063225,470.090332 87.377640,470.440308 
	C88.207367,470.393158 89.037102,470.346008 90.534630,470.575256 
	C92.376602,469.880585 94.218575,469.185913 96.721024,468.381775 
	C97.148460,468.254852 97.575897,468.127899 98.387764,468.273956 
	C99.100258,468.050720 99.812752,467.827484 101.217781,467.634552 
	C102.134224,467.539856 103.050667,467.445160 104.315048,467.598358 
	C104.756783,467.070923 105.198509,466.543488 105.818825,465.638336 
	C105.818825,465.638336 105.491989,465.378052 106.223022,465.246857 
	C107.451477,465.112213 108.679939,464.977600 110.662605,465.200287 
	C111.771278,465.158905 112.879944,465.117523 114.628517,465.445831 
	C117.492050,464.683929 120.355583,463.921997 123.659691,463.045471 
	C124.028305,462.938446 124.159752,462.700409 124.845047,462.298645 
	C125.894318,462.197845 126.943581,462.097046 128.770767,462.385986 
	C130.493408,462.325256 132.216034,462.264526 134.615967,462.533691 
	C139.222107,461.543060 143.828247,460.552429 149.104187,459.619049 
	C150.681458,459.554077 152.258743,459.489105 154.423721,459.660889 
	C154.972412,459.120392 155.521088,458.579895 156.317932,457.678070 
	C156.317932,457.678070 156.088623,457.304443 156.890671,457.218140 
	C158.223923,457.081268 159.557175,456.944427 161.759750,457.171967 
	C165.171249,457.125977 168.582733,457.079987 172.689911,457.422302 
	C174.622101,457.466644 176.621796,457.844391 178.469299,457.470398 
	C180.748734,457.008942 182.901566,455.922180 185.294937,454.746979 
	C185.294937,454.746979 184.964279,454.515015 185.861160,454.414703 
	C188.798660,454.296021 191.736145,454.177338 195.530884,454.482391 
	C198.642899,454.422028 201.754913,454.361664 205.780411,454.562988 
	C222.279648,453.895172 238.774246,453.050629 255.279663,452.619263 
	C267.049561,452.311707 278.834076,452.582306 290.611816,452.535278 
	C292.408844,452.528107 294.204559,452.197845 296.714142,452.190491 
	C297.173340,452.081757 297.632568,451.973053 297.986328,451.928955 
	C297.986328,451.928955 297.959869,452.049744 298.045074,452.787445 
	C305.714050,453.251190 313.383026,453.714905 321.950104,454.343719 
	C325.302338,454.227631 328.654572,454.111511 332.793488,454.181824 
	C335.945068,454.367706 339.096680,454.553589 342.251556,455.499176 
	C346.435699,459.517365 351.356689,457.181671 356.918457,457.198181 
	C359.329041,457.040680 361.739655,456.883179 364.984955,456.903839 
	C366.976257,456.995850 368.967529,457.087830 370.833710,457.603821 
	C370.833710,457.603821 371.113739,457.945831 371.240723,458.549347 
	C371.882721,458.846161 372.524689,459.143005 373.982605,459.651764 
	C375.676086,459.684723 377.369568,459.717682 379.647064,460.211060 
	C384.115448,460.867004 388.583832,461.522949 393.885437,462.346985 
	C395.272461,462.209076 396.659454,462.071167 398.845642,462.139069 
	C400.218292,462.184662 401.590912,462.230225 402.993835,462.736053 
	C403.219482,462.963531 403.491241,463.097412 404.092499,463.792023 
	C407.067139,464.225586 410.041779,464.659149 413.846375,465.198303 
	C414.934479,465.068054 416.022583,464.937805 417.677551,464.998596 
	C418.067627,465.081512 418.457672,465.164429 418.983459,465.828766 
	C420.334595,466.313995 421.685730,466.799194 423.616089,467.507935 
	C424.231934,467.564667 424.847748,467.621399 425.876862,468.048615 
	C426.914124,468.020020 427.951385,467.991394 429.699890,468.144348 
	C430.163422,468.051178 430.626953,467.958038 430.988617,467.927368 
	C430.988617,467.927368 430.963104,468.044128 431.017029,468.760254 
	C433.069427,469.286591 435.121826,469.812897 437.990814,470.524567 
	C438.777740,470.347229 439.564667,470.169891 440.946930,470.143280 
	C441.559296,470.178345 442.171661,470.213409 443.178589,470.829132 
	C443.388763,470.932007 443.598969,471.034912 444.075378,471.773407 
	C446.386871,472.199768 448.698395,472.626129 451.805206,473.176453 
	C452.577667,473.044312 453.350159,472.912170 454.688385,472.968872 
	C455.075836,473.057800 455.463318,473.146729 456.012848,473.896027 
	C457.403412,474.377472 458.793945,474.858887 460.716766,475.516113 
	C461.080597,475.456116 461.444427,475.396118 462.501770,475.565979 
	C463.490875,474.238159 465.313110,472.925323 465.337250,471.580139 
	C465.529999,460.854492 465.486267,450.119812 465.191681,439.396790 
	C465.158966,438.205078 463.102478,437.068970 461.236603,435.674835 
	C460.489471,435.783752 459.742371,435.892670 458.292969,435.819000 
	C457.574860,435.721191 456.856750,435.623383 456.430573,435.214935 
	C456.430573,435.214935 456.159882,434.885651 455.908295,434.270874 
	C453.933990,433.818695 451.959656,433.366516 449.189270,432.781494 
	C448.418823,432.928101 447.648376,433.074707 446.189178,433.039185 
	C445.486328,432.923065 444.783508,432.806946 444.315247,432.322174 
	C444.315247,432.322174 444.069855,431.960602 443.905151,431.347076 
	C443.215790,431.086060 442.526428,430.825043 441.140076,430.341034 
	C440.411652,430.308197 439.683228,430.275330 438.687012,429.868896 
	C438.128143,429.925842 437.569244,429.982788 436.299744,429.856293 
	C435.836304,429.949219 435.372894,430.042175 435.011353,430.072662 
	C435.011353,430.072662 435.036896,429.955872 434.982971,429.239716 
	C432.930573,428.713409 430.878174,428.187073 428.009186,427.475403 
	C427.222260,427.652740 426.435333,427.830078 425.008057,427.852936 
	C424.351379,427.806305 423.694672,427.759674 422.684784,427.026062 
	C418.550995,426.065094 414.449524,424.922516 410.276917,424.179413 
	C400.363586,422.414062 390.444946,420.631378 380.472931,419.259430 
	C374.059174,418.377045 372.047577,416.551971 372.047516,409.966003 
	C372.046722,316.171753 372.046783,222.377487 372.048401,128.583221 
	C372.048431,127.084007 371.788239,125.506790 372.174408,124.111259 
	C372.463074,123.068108 373.477844,121.620438 374.376923,121.450340 
	C380.026581,120.381508 385.735657,119.628403 391.422546,118.754417 
	C395.671112,118.101494 399.922607,117.463875 404.160675,116.747681 
	C410.486145,115.678726 416.814880,114.619698 423.116333,113.420509 
	C429.220520,112.258858 435.313110,111.018150 441.371918,109.641090 
	C447.286316,108.296844 453.103333,106.479385 459.055481,105.361847 
	C462.960602,104.628647 464.946991,103.161064 464.865143,98.892662 
	C464.676819,89.067055 464.676331,79.232750 464.870789,69.407341 
	C464.951904,65.308586 463.090302,63.785805 459.431580,64.444214 
	C451.650116,65.844528 443.913666,67.495789 436.161499,69.057838 
	C430.348907,70.229080 424.568085,71.585915 418.723663,72.564667 
	C410.765991,73.897308 402.748901,74.871643 394.780029,76.142250 
	C386.823700,77.410858 378.936951,79.215881 370.944916,80.136620 
	C359.486206,81.456734 347.974426,82.449814 336.458099,83.100777 
	C323.514404,83.832405 310.540100,84.399727 297.579681,84.388023 
	C257.417694,84.351746 217.214340,85.551407 177.165222,81.169144 
	C168.158539,80.183617 159.125473,79.416023 150.138428,78.280167 
	C137.686722,76.706421 125.246178,75.015106 112.841469,73.109726 
	C105.352394,71.959404 97.940056,70.309189 90.493629,68.881531 
	C82.556389,67.359764 74.631798,65.767448 66.676857,64.344765 
	C63.326927,63.745659 61.853970,65.258102 61.906178,68.806763 
	C62.053219,78.800453 62.098610,88.800507 61.895672,98.792191 
	C61.808079,103.104897 63.860294,104.660698 67.735359,105.235741 
	C70.769058,105.685921 73.723686,106.668968 76.976799,107.923172 
	C77.983551,107.929062 78.990303,107.934952 80.597878,108.069000 
	C80.999641,108.148476 81.401413,108.227951 82.103325,108.927780 
	C83.843224,109.401138 85.583122,109.874496 88.171051,110.475510 
	C89.563370,110.334122 90.955688,110.192734 93.058983,110.206215 
	C94.029686,110.226784 95.000397,110.247360 96.085495,111.103134 
	C100.669312,112.107391 105.253136,113.111649 110.072380,114.702560 
	C110.769379,114.942932 111.466385,115.183304 112.955856,115.623863 
	C114.317406,115.679634 115.678947,115.735413 117.422134,116.182182 
	C118.277916,116.109344 119.133698,116.036507 120.710541,116.135323 
	C121.445488,116.227882 122.180435,116.320442 123.161667,117.046127 
	C125.501305,117.467232 127.840935,117.888336 131.041306,118.505058 
	C132.475861,118.357101 133.910400,118.209145 136.191147,118.202797 
	C138.210175,118.381676 140.229202,118.560562 142.250778,119.498245 
	C143.273041,120.170578 144.227417,121.271149 145.328583,121.445671 
	C152.432129,122.571487 152.444244,122.505112 152.444275,129.610123 
	C152.444656,222.313553 152.433762,315.016998 152.477600,407.720398 
	C152.479721,412.185120 152.955246,416.646271 147.169220,419.179932 
	C147.035263,419.376953 146.901321,419.573944 146.074524,419.739746 
	C145.155563,419.807373 144.236603,419.874969 142.521286,419.516876 
	C140.741501,419.604095 138.961700,419.691315 136.464233,419.456573 
	C134.276215,420.143219 132.088211,420.829865 129.252258,421.619568 
	C128.833786,421.745392 128.415314,421.871216 127.536255,421.705231 
	C126.706024,421.872955 125.875801,422.040680 124.259644,422.153900 
	C123.233543,422.325684 122.207451,422.497467 120.542778,422.365662 
	C119.319092,423.176300 118.095406,423.986969 116.286690,424.935547 
	C115.898376,425.031036 115.510063,425.126526 114.374825,424.821075 
	C113.253220,424.857391 112.131607,424.893738 110.433586,424.588226 
	C108.586075,425.356812 106.738564,426.125366 104.704903,427.252686 
	C104.704903,427.252686 105.035683,427.484985 104.290680,427.576355 
	C103.302139,427.715027 102.313599,427.853699 100.623802,427.528503 
	C99.794075,427.577759 98.964340,427.626984 97.363937,427.446198 
	C94.082901,428.441772 90.801857,429.437317 86.901299,430.342926 
	C86.279022,430.433929 85.656754,430.524902 84.598991,430.369537 
	C84.100983,430.929810 83.602982,431.490082 82.824341,432.389557 
	C82.824341,432.389557 82.956451,432.809540 82.241890,432.894348 
	C81.529961,432.993652 80.818024,433.092987 79.414772,432.776550 
	C78.614700,432.816681 77.814621,432.856781 76.456230,432.559326 
	C74.565758,433.320465 72.675285,434.081573 70.340714,434.962402 
	C69.970253,435.074677 69.839394,435.316559 69.291771,435.723755 
	C68.864952,435.819733 68.438133,435.915710 67.330383,435.632538 
	C66.561104,435.709320 65.791832,435.786102 64.614265,435.532776 
	C64.056595,436.012787 63.498924,436.492767 62.648365,437.588257 
M124.557190,284.023895 
	C131.226547,278.587311 135.037003,271.660522 137.337357,263.274963 
	C140.745438,250.851425 139.563110,238.682510 136.373001,226.771011 
	C132.134796,210.946045 121.364525,199.494034 102.623764,198.550125 
	C86.668671,197.746536 70.654846,198.088364 54.666645,197.972412 
	C47.859287,197.923035 47.754902,198.055878 47.753021,205.029266 
	C47.742275,244.845673 47.746731,284.662079 47.745975,324.478485 
	C47.745708,338.639130 47.857147,352.801208 47.676075,366.959534 
	C47.622578,371.142334 49.211918,372.631714 53.257092,372.490906 
	C58.748100,372.299774 64.250771,372.448517 69.748428,372.442444 
	C77.702950,372.433655 77.704994,372.430176 77.705666,364.384766 
	C77.707489,342.560699 77.691750,320.736633 77.718071,298.912598 
	C77.725471,292.777222 78.083633,292.472473 84.266258,292.446594 
	C88.597679,292.428436 92.931839,292.525421 97.260117,292.404388 
	C106.864975,292.135834 116.103340,290.544952 124.557190,284.023895 
z"/>
<path fill="#FDFEFD" opacity="1.000000" stroke="none" 
	d="
M456.138641,435.525574 
	C456.856750,435.623383 457.574860,435.721191 458.706421,436.271332 
	C460.094391,439.019867 461.806519,441.283539 461.909393,443.618164 
	C462.259979,451.574280 461.875275,459.560730 462.124786,467.524506 
	C462.227661,470.807068 461.175323,472.506561 457.604248,472.851776 
	C456.773224,472.947083 456.311981,473.091370 455.850769,473.235657 
	C455.463318,473.146729 455.075836,473.057800 454.318634,472.528320 
	C450.227264,471.474640 446.505646,470.861542 442.784027,470.248444 
	C442.171661,470.213409 441.559296,470.178345 440.597534,469.775299 
	C438.479248,468.857697 436.710388,468.308075 434.539825,467.685242 
	C433.079773,467.756073 432.021454,467.900085 430.963104,468.044128 
	C430.963104,468.044128 430.988617,467.927368 430.957581,467.560120 
	C427.599487,466.387756 424.272461,465.582703 420.573242,464.748718 
	C419.749908,464.895630 419.298828,465.071472 418.847748,465.247345 
	C418.457672,465.164429 418.067627,465.081512 417.302917,464.550537 
	C412.273376,463.493591 407.618469,462.884705 402.963562,462.275818 
	C401.590912,462.230225 400.218292,462.184662 398.405060,461.669739 
	C395.246246,460.691803 392.527985,460.183167 389.445679,459.584900 
	C386.112823,459.270447 383.144073,459.045654 379.999756,458.511414 
	C376.869080,457.861267 373.913940,457.520569 370.958832,457.179871 
	C368.967529,457.087830 366.976257,456.995850 364.471985,456.462158 
	C357.611145,455.576904 351.263306,455.133301 344.577942,454.642456 
	C343.576355,454.643280 342.912292,454.691345 342.248260,454.739441 
	C339.096680,454.553589 335.945068,454.367706 332.355469,453.717407 
	C327.269775,452.753296 322.622101,452.253571 317.557800,451.695587 
	C310.747406,451.774811 304.353638,451.912262 297.959869,452.049744 
	C297.959869,452.049744 297.986328,451.928955 298.055023,451.639160 
	C297.415833,451.229401 296.707947,451.109436 295.533386,450.941650 
	C273.710754,450.931458 252.354813,450.969086 230.817566,450.856995 
	C230.109833,450.902924 229.583405,451.098602 228.586105,451.285797 
	C221.142761,451.409546 214.170288,451.541779 206.745514,451.552795 
	C202.412933,452.275848 197.635864,449.153687 194.673645,454.058655 
	C191.736145,454.177338 188.798660,454.296021 185.337158,454.163818 
	C178.276245,454.074066 171.730774,454.097351 165.208893,454.501190 
	C163.727493,454.592957 162.327759,456.003845 160.890427,456.807556 
	C159.557175,456.944427 158.223923,457.081268 156.253021,456.973358 
	C152.691513,457.437683 149.767639,458.146790 146.472076,458.854004 
	C143.129272,459.126617 140.158157,459.401123 136.777679,459.520782 
	C133.576508,460.242706 130.784683,461.119476 127.992859,461.996246 
	C126.943581,462.097046 125.894318,462.197845 124.221313,462.024933 
	C120.806412,461.907349 117.959785,461.781830 115.243210,462.316742 
	C113.371689,462.685211 111.680290,463.968536 109.908394,464.842987 
	C108.679939,464.977600 107.451477,465.112213 105.428802,465.164734 
	C101.751945,465.828796 98.869308,466.574982 95.601746,467.308655 
	C94.212105,467.454742 93.207382,467.613342 91.878128,467.627899 
	C89.926422,468.318085 88.299255,469.152283 86.672089,469.986481 
	C86.063225,470.090332 85.454361,470.194214 84.359215,470.027039 
	C80.067467,470.248779 75.670601,468.613251 72.893486,472.806854 
	C72.507416,472.911530 72.121353,473.016205 71.136688,472.970612 
	C70.045029,472.805817 69.551964,472.791290 68.722336,472.624268 
	C66.637604,472.254822 64.889427,472.037842 63.143494,471.363525 
	C62.987743,460.203339 62.829758,449.500427 62.671772,438.797546 
	C62.671772,438.797546 62.778404,438.807404 63.193062,438.899902 
	C65.075584,437.998840 66.543449,437.005280 68.011314,436.011719 
	C68.438133,435.915710 68.864952,435.819733 69.832733,435.988281 
	C73.617821,435.232635 76.861954,434.212463 80.106087,433.192322 
	C80.818024,433.092987 81.529961,432.993652 82.805145,433.110229 
	C85.613007,432.578857 87.857620,431.831604 90.414093,431.052765 
	C92.421173,430.796997 94.116394,430.572876 96.141396,430.470764 
	C98.089134,429.725983 99.707100,428.859161 101.325058,427.992340 
	C102.313599,427.853699 103.302139,427.715027 104.719513,427.821106 
	C108.472816,427.117920 111.797279,426.169952 115.121750,425.222015 
	C115.510063,425.126526 115.898376,425.031036 116.901901,425.049927 
	C118.007393,425.123627 118.497681,425.082916 119.277893,425.224518 
	C123.038292,424.499664 126.508759,423.592529 130.370758,422.697968 
	C131.792389,422.571472 132.822479,422.432404 134.261719,422.438812 
	C137.691925,422.158081 141.467194,424.200500 143.317642,419.942596 
	C144.236603,419.874969 145.155563,419.807373 146.606598,420.013550 
	C155.776489,420.208038 155.952774,420.051575 155.953033,411.842804 
	C155.956192,316.910095 155.955795,221.977417 155.954056,127.044716 
	C155.953903,118.409378 153.820862,116.800598 144.578445,118.642426 
	C143.576630,118.643295 142.912430,118.691368 142.248230,118.739441 
	C140.229202,118.560562 138.210175,118.381676 135.692444,117.807732 
	C132.746063,116.834358 130.298370,116.256058 127.454941,115.576622 
	C125.699783,115.394630 124.340355,115.313766 122.706482,114.984238 
	C114.144096,113.033897 105.859177,111.317085 97.560379,109.670166 
	C97.088737,109.576561 96.503479,110.055473 95.971100,110.267929 
	C95.000397,110.247360 94.029686,110.226784 92.630676,109.800468 
	C89.716454,108.824799 87.230545,108.254883 84.451736,107.598587 
	C83.755196,107.463020 83.351555,107.413811 82.730133,107.069771 
	C77.457893,105.214241 72.308075,103.894150 67.405029,101.951317 
	C65.864304,101.340797 64.017914,99.090775 63.964180,97.534096 
	C63.642384,88.212746 63.844830,78.874443 63.779667,69.542465 
	C63.756302,66.196465 65.236374,65.753174 68.216301,66.381889 
	C87.800690,70.513824 107.360733,74.799637 127.041672,78.421471 
	C139.373184,80.690804 151.869904,82.198692 164.350586,83.484047 
	C177.701294,84.859001 191.120026,86.413696 204.509415,86.416962 
	C246.928528,86.427299 289.389740,89.095947 331.762085,84.846504 
	C349.888702,83.028618 368.053375,81.585838 386.173462,79.709274 
	C396.895905,78.598831 407.636566,77.373405 418.239258,75.474907 
	C430.311310,73.313309 442.241211,70.355240 454.227203,67.717484 
	C456.592621,67.196930 458.932159,66.558846 462.044708,65.785980 
	C462.044708,75.495392 462.045044,84.456375 462.044647,93.417351 
	C462.044250,102.175751 461.883698,102.259926 453.282043,104.072144 
	C438.205353,107.248512 423.195831,110.759529 408.076416,113.711357 
	C398.650696,115.551582 389.110046,116.972366 379.555878,117.935005 
	C370.996582,118.797394 370.210510,119.174545 370.210388,127.719841 
	C370.209198,222.044510 370.209564,316.369171 370.210449,410.693848 
	C370.210480,412.193665 370.262085,413.694550 370.220886,415.193054 
	C370.139984,418.134918 371.229706,419.557770 374.446625,420.096069 
	C389.155640,422.557343 403.806091,425.366974 418.494659,427.954620 
	C419.949768,428.210938 421.520782,427.809296 423.037994,427.713043 
	C423.694672,427.759674 424.351379,427.806305 425.379974,428.222809 
	C427.520752,429.142334 429.289612,429.691956 431.460175,430.314758 
	C432.920227,430.243896 433.978546,430.099884 435.036896,429.955872 
	C435.036896,429.955872 435.011353,430.072662 435.039490,430.438477 
	C438.071991,431.433105 441.076324,432.061981 444.080658,432.690826 
	C444.783508,432.806946 445.486328,432.923065 446.629120,433.462769 
	C450.092255,434.432770 453.115448,434.979156 456.138641,435.525574 
M273.500000,122.989052 
	C251.535095,122.690910 229.570312,122.381554 207.605194,122.100021 
	C198.488022,121.983170 198.244476,122.242607 198.244400,131.159927 
	C198.243576,222.947922 198.300064,314.736023 198.155350,406.523773 
	C198.141159,415.520508 200.227051,417.370178 207.717728,415.124939 
	C208.641418,414.848083 209.704514,415.015686 210.703140,415.012390 
	C240.519669,414.913208 270.336182,414.786041 300.152802,414.748016 
	C306.809174,414.739532 313.493958,414.723877 320.114624,415.299011 
	C326.703217,415.871338 327.004364,415.947205 327.004944,409.360504 
	C327.013031,315.740082 327.013184,222.119644 327.003876,128.499222 
	C327.003265,122.365791 326.713898,122.021706 320.405518,122.117523 
	C305.102783,122.349945 289.801727,122.691467 273.500000,122.989052 
z"/>
<path fill="#F5FBF6" opacity="1.000000" stroke="none" 
	d="
M124.270409,284.234192 
	C116.103340,290.544952 106.864975,292.135834 97.260117,292.404388 
	C92.931839,292.525421 88.597679,292.428436 84.266258,292.446594 
	C78.083633,292.472473 77.725471,292.777222 77.718071,298.912598 
	C77.691750,320.736633 77.707489,342.560699 77.705666,364.384766 
	C77.704994,372.430176 77.702950,372.433655 69.748428,372.442444 
	C64.250771,372.448517 58.748100,372.299774 53.257092,372.490906 
	C49.211918,372.631714 47.622578,371.142334 47.676075,366.959534 
	C47.857147,352.801208 47.745708,338.639130 47.745975,324.478485 
	C47.746731,284.662079 47.742275,244.845673 47.753021,205.029266 
	C47.754902,198.055878 47.859287,197.923035 54.666645,197.972412 
	C70.654846,198.088364 86.668671,197.746536 102.623764,198.550125 
	C121.364525,199.494034 132.134796,210.946045 136.373001,226.771011 
	C139.563110,238.682510 140.745438,250.851425 137.337357,263.274963 
	C135.037003,271.660522 131.226547,278.587311 124.270409,284.234192 
M93.440872,219.570496 
	C93.046638,219.489594 92.652397,219.408707 91.886719,218.733475 
	C89.486031,218.203552 87.100426,217.311157 84.681862,217.210464 
	C76.890846,216.886124 76.002220,217.837952 75.997459,225.471909 
	C75.990105,237.273422 75.922867,249.075516 76.014740,260.876312 
	C76.116486,273.947296 73.805122,274.281097 89.259071,272.647369 
	C101.231277,271.381714 107.326317,268.736938 110.027206,256.879669 
	C112.170784,247.469086 111.302643,237.985199 107.729401,228.975220 
	C105.480209,223.303833 98.943207,219.149902 93.440872,219.570496 
z"/>
<path fill="#FDFEFD" opacity="1.000000" stroke="none" 
	d="
M459.411438,203.370590 
	C460.051117,203.565979 460.690796,203.761368 461.513458,204.280365 
	C461.696442,204.604004 461.850769,205.054840 461.953735,205.342560 
	C462.728973,205.946060 463.401276,206.261841 464.305786,206.702576 
	C464.706085,206.879150 464.874115,206.930786 465.161499,207.284363 
	C466.187134,208.092133 467.093445,208.597946 468.121643,209.189072 
	C468.243530,209.274368 468.537781,209.318237 468.684540,209.625824 
	C470.124084,211.101334 471.416901,212.269241 472.880035,213.724579 
	C473.898163,215.308823 474.745972,216.605652 475.532196,218.210815 
	C476.260193,219.431747 477.049774,220.344345 477.883392,221.549774 
	C478.077759,222.206329 478.228088,222.570053 478.318329,223.255997 
	C478.841675,224.361526 479.425110,225.144836 479.995728,225.961563 
	C479.982941,225.994980 480.046326,226.028168 480.029846,226.425995 
	C480.940308,229.326096 481.867279,231.828339 482.800049,234.771759 
	C483.149841,238.461563 483.493835,241.710205 483.657776,245.393127 
	C483.437744,247.478226 483.183197,249.157669 483.398956,250.774353 
	C483.994781,255.239548 482.063873,256.568115 477.766815,256.372772 
	C471.163605,256.072632 464.536957,256.287659 457.866211,255.800995 
	C457.714142,250.878128 458.008331,246.386810 457.433075,242.009766 
	C456.368744,233.911438 454.705597,225.935318 445.347229,222.365097 
	C435.738373,217.099136 419.873749,223.360428 418.362488,234.947693 
	C417.722107,239.857666 416.277161,244.733856 416.222229,249.636871 
	C415.964600,272.634064 415.820038,295.638977 416.173218,318.632874 
	C416.289032,326.172302 417.605377,333.773621 419.133087,341.190033 
	C420.918823,349.859344 428.535492,355.723572 436.914124,355.855103 
	C445.860352,355.995544 452.911957,351.019775 454.907288,341.756348 
	C456.569885,334.037598 457.146942,326.047516 457.689667,318.142273 
	C457.928009,314.670349 458.969421,313.447784 462.391266,313.560516 
	C468.051727,313.746979 473.731476,313.798462 479.386658,313.542847 
	C483.472504,313.358215 484.871643,315.147522 484.359283,318.888458 
	C483.009888,328.740387 482.517548,338.825623 479.990387,348.369537 
	C477.132629,359.162048 470.284363,367.438873 459.226837,371.525024 
	C446.563599,376.204498 433.612427,375.172577 420.803497,373.112885 
	C413.743195,371.977600 407.151917,368.449921 402.552246,362.692169 
	C395.330200,353.651733 391.514221,343.165375 390.549988,331.567871 
	C390.280548,328.327393 388.904907,325.178894 388.036713,321.988220 
	C388.016388,299.642395 387.996033,277.296539 388.267517,254.558090 
	C388.717926,254.095032 388.876495,254.024582 389.047119,254.018005 
	C389.059174,254.081909 388.991913,253.993057 388.998291,253.609467 
	C390.394897,246.187485 391.609192,239.108673 393.215485,232.119949 
	C395.788818,220.923965 401.329987,211.757156 412.202759,206.404114 
	C412.945557,205.985291 413.415039,205.486053 414.232910,204.846100 
	C416.034271,204.280731 417.487274,203.856094 419.278259,203.548645 
	C420.766632,203.129379 421.917023,202.592926 423.364075,202.047668 
	C424.105743,201.721191 424.550720,201.403488 424.995697,201.085800 
	C425.710724,201.003601 426.425781,200.921417 427.941772,201.051773 
	C434.883728,201.117828 441.024750,200.971344 447.165741,200.824860 
	C448.504578,200.909912 449.843414,200.994965 451.479950,201.353668 
	C451.777649,201.627335 452.018341,201.993439 452.161682,202.284943 
	C453.904449,202.841354 455.503815,203.106247 457.391052,203.450958 
	C458.256378,203.477371 458.833923,203.423981 459.411438,203.370590 
z"/>
<path fill="#9FD79F" opacity="1.000000" stroke="none" 
	d="
M422.861389,427.369568 
	C421.520782,427.809296 419.949768,428.210938 418.494659,427.954620 
	C403.806091,425.366974 389.155640,422.557343 374.446625,420.096069 
	C371.229706,419.557770 370.139984,418.134918 370.220886,415.193054 
	C370.262085,413.694550 370.210480,412.193665 370.210449,410.693848 
	C370.209564,316.369171 370.209198,222.044510 370.210388,127.719841 
	C370.210510,119.174545 370.996582,118.797394 379.555878,117.935005 
	C389.110046,116.972366 398.650696,115.551582 408.076416,113.711357 
	C423.195831,110.759529 438.205353,107.248512 453.282043,104.072144 
	C461.883698,102.259926 462.044250,102.175751 462.044647,93.417351 
	C462.045044,84.456375 462.044708,75.495392 462.044708,65.785980 
	C458.932159,66.558846 456.592621,67.196930 454.227203,67.717484 
	C442.241211,70.355240 430.311310,73.313309 418.239258,75.474907 
	C407.636566,77.373405 396.895905,78.598831 386.173462,79.709274 
	C368.053375,81.585838 349.888702,83.028618 331.762085,84.846504 
	C289.389740,89.095947 246.928528,86.427299 204.509415,86.416962 
	C191.120026,86.413696 177.701294,84.859001 164.350586,83.484047 
	C151.869904,82.198692 139.373184,80.690804 127.041672,78.421471 
	C107.360733,74.799637 87.800690,70.513824 68.216301,66.381889 
	C65.236374,65.753174 63.756302,66.196465 63.779667,69.542465 
	C63.844830,78.874443 63.642384,88.212746 63.964180,97.534096 
	C64.017914,99.090775 65.864304,101.340797 67.405029,101.951317 
	C72.308075,103.894150 77.457893,105.214241 82.571030,107.261841 
	C82.354187,107.934975 82.078682,108.121201 81.803177,108.307426 
	C81.401413,108.227951 80.999641,108.148476 80.034622,107.771698 
	C78.552055,107.454681 77.632744,107.434967 76.713440,107.415253 
	C73.723686,106.668968 70.769058,105.685921 67.735359,105.235741 
	C63.860294,104.660698 61.808079,103.104897 61.895672,98.792191 
	C62.098610,88.800507 62.053219,78.800453 61.906178,68.806763 
	C61.853970,65.258102 63.326927,63.745659 66.676857,64.344765 
	C74.631798,65.767448 82.556389,67.359764 90.493629,68.881531 
	C97.940056,70.309189 105.352394,71.959404 112.841469,73.109726 
	C125.246178,75.015106 137.686722,76.706421 150.138428,78.280167 
	C159.125473,79.416023 168.158539,80.183617 177.165222,81.169144 
	C217.214340,85.551407 257.417694,84.351746 297.579681,84.388023 
	C310.540100,84.399727 323.514404,83.832405 336.458099,83.100777 
	C347.974426,82.449814 359.486206,81.456734 370.944916,80.136620 
	C378.936951,79.215881 386.823700,77.410858 394.780029,76.142250 
	C402.748901,74.871643 410.765991,73.897308 418.723663,72.564667 
	C424.568085,71.585915 430.348907,70.229080 436.161499,69.057838 
	C443.913666,67.495789 451.650116,65.844528 459.431580,64.444214 
	C463.090302,63.785805 464.951904,65.308586 464.870789,69.407341 
	C464.676331,79.232750 464.676819,89.067055 464.865143,98.892662 
	C464.946991,103.161064 462.960602,104.628647 459.055481,105.361847 
	C453.103333,106.479385 447.286316,108.296844 441.371918,109.641090 
	C435.313110,111.018150 429.220520,112.258858 423.116333,113.420509 
	C416.814880,114.619698 410.486145,115.678726 404.160675,116.747681 
	C399.922607,117.463875 395.671112,118.101494 391.422546,118.754417 
	C385.735657,119.628403 380.026581,120.381508 374.376923,121.450340 
	C373.477844,121.620438 372.463074,123.068108 372.174408,124.111259 
	C371.788239,125.506790 372.048431,127.084007 372.048401,128.583221 
	C372.046783,222.377487 372.046722,316.171753 372.047516,409.966003 
	C372.047577,416.551971 374.059174,418.377045 380.472931,419.259430 
	C390.444946,420.631378 400.363586,422.414062 410.276917,424.179413 
	C414.449524,424.922516 418.550995,426.065094 422.861389,427.369568 
z"/>
<path fill="#94D590" opacity="1.000000" stroke="none" 
	d="
M387.759918,322.292236 
	C388.904907,325.178894 390.280548,328.327393 390.549988,331.567871 
	C391.514221,343.165375 395.330200,353.651733 402.552246,362.692169 
	C407.151917,368.449921 413.743195,371.977600 420.803497,373.112885 
	C433.612427,375.172577 446.563599,376.204498 459.226837,371.525024 
	C470.284363,367.438873 477.132629,359.162048 479.990387,348.369537 
	C482.517548,338.825623 483.009888,328.740387 484.359283,318.888458 
	C484.871643,315.147522 483.472504,313.358215 479.386658,313.542847 
	C473.731476,313.798462 468.051727,313.746979 462.391266,313.560516 
	C458.969421,313.447784 457.928009,314.670349 457.689667,318.142273 
	C457.146942,326.047516 456.569885,334.037598 454.907288,341.756348 
	C452.911957,351.019775 445.860352,355.995544 436.914124,355.855103 
	C428.535492,355.723572 420.918823,349.859344 419.133087,341.190033 
	C417.605377,333.773621 416.289032,326.172302 416.173218,318.632874 
	C415.820038,295.638977 415.964600,272.634064 416.222229,249.636871 
	C416.277161,244.733856 417.722107,239.857666 418.362488,234.947693 
	C419.873749,223.360428 435.738373,217.099136 444.894104,222.482162 
	C444.398651,222.937057 444.096100,223.005066 443.793518,223.073090 
	C438.705078,222.852158 433.787659,222.068497 428.827087,225.027573 
	C424.253662,227.755707 421.437439,231.521408 420.466461,236.198303 
	C419.021179,243.159775 418.009705,250.328873 417.895966,257.426971 
	C417.567749,277.907166 417.340790,298.410248 417.999298,318.874573 
	C418.261200,327.013611 420.474548,335.208649 422.688354,343.129761 
	C424.563873,349.840393 430.061005,352.785522 437.758606,352.749908 
	C445.099365,352.715942 449.804138,350.164124 451.567322,343.216888 
	C453.628662,335.094757 454.753418,326.666962 455.507660,318.301697 
	C456.163971,311.023010 456.187988,310.480560 463.664856,310.469452 
	C469.660553,310.460510 475.656616,310.515808 481.651917,310.466797 
	C484.888916,310.440338 486.636566,311.807434 486.758759,315.162781 
	C487.302521,330.093231 486.190094,344.744537 478.583130,358.067963 
	C473.704712,366.612427 466.365753,371.794373 456.874756,375.045380 
	C448.488586,377.917999 440.177460,377.654907 431.811005,377.354095 
	C414.899628,376.746124 401.193451,369.990448 393.965271,353.920502 
	C389.544281,344.091614 386.317017,333.721985 387.759918,322.292236 
z"/>
<path fill="#9FD79F" opacity="1.000000" stroke="none" 
	d="
M144.916061,118.689636 
	C153.820862,116.800598 155.953903,118.409378 155.954056,127.044716 
	C155.955795,221.977417 155.956192,316.910095 155.953033,411.842804 
	C155.952774,420.051575 155.776489,420.208038 146.953033,420.029144 
	C146.901321,419.573944 147.035263,419.376953 147.889435,419.066223 
	C154.068634,418.734283 154.159622,415.044922 154.157227,410.881470 
	C154.103638,317.622589 154.116135,224.363693 154.116135,131.104797 
	C154.116135,121.816673 154.114883,121.820953 145.632416,119.359291 
	C145.352432,119.278030 145.153030,118.919121 144.916061,118.689636 
z"/>
<path fill="#71C571" opacity="1.000000" stroke="none" 
	d="
M144.578445,118.642426 
	C145.153030,118.919121 145.352432,119.278030 145.632416,119.359291 
	C154.114883,121.820953 154.116135,121.816673 154.116135,131.104797 
	C154.116135,224.363693 154.103638,317.622589 154.157227,410.881470 
	C154.159622,415.044922 154.068634,418.734283 148.209503,418.907318 
	C152.955246,416.646271 152.479721,412.185120 152.477600,407.720398 
	C152.433762,315.016998 152.444656,222.313553 152.444275,129.610123 
	C152.444244,122.505112 152.432129,122.571487 145.328583,121.445671 
	C144.227417,121.271149 143.273041,120.170578 142.249512,119.118843 
	C142.912430,118.691368 143.576630,118.643295 144.578445,118.642426 
z"/>
<path fill="#71C571" opacity="1.000000" stroke="none" 
	d="
M207.197815,451.674011 
	C214.170288,451.541779 221.142761,451.409546 228.764771,451.432617 
	C229.942490,451.394165 230.470673,451.200439 230.998871,451.006714 
	C252.354813,450.969086 273.710754,450.931458 295.536255,451.198547 
	C296.004181,451.674500 296.002533,451.845764 296.000885,452.016998 
	C294.204559,452.197845 292.408844,452.528107 290.611816,452.535278 
	C278.834076,452.582306 267.049561,452.311707 255.279663,452.619263 
	C238.774246,453.050629 222.279648,453.895172 205.435715,454.204773 
	C205.793289,453.122375 206.495560,452.398193 207.197815,451.674011 
z"/>
<path fill="#94D590" opacity="1.000000" stroke="none" 
	d="
M424.719330,200.834442 
	C424.550720,201.403488 424.105743,201.721191 423.014130,202.014587 
	C421.225098,202.470657 420.082672,202.951050 418.940277,203.431442 
	C417.487274,203.856094 416.034271,204.280731 413.977539,204.873123 
	C412.892365,205.468475 412.410919,205.896103 411.929443,206.323715 
	C401.329987,211.757156 395.788818,220.923965 393.215485,232.119949 
	C391.609192,239.108673 390.394897,246.187485 389.010437,253.602829 
	C389.016205,253.979782 389.035065,253.954117 389.035065,253.954117 
	C388.876495,254.024582 388.717926,254.095032 388.308960,254.094574 
	C387.964813,250.127823 387.023499,246.015106 387.953247,242.381119 
	C389.901886,234.764786 391.947815,226.934921 395.565094,220.037811 
	C401.516785,208.689774 410.907715,201.258514 424.719330,200.834442 
z"/>
<path fill="#80D29A" opacity="1.000000" stroke="none" 
	d="
M443.963043,223.367615 
	C444.096100,223.005066 444.398651,222.937057 445.154358,222.751999 
	C454.705597,225.935318 456.368744,233.911438 457.433075,242.009766 
	C458.008331,246.386810 457.714142,250.878128 457.887177,256.064117 
	C458.023621,257.159912 458.085052,257.509521 458.112823,258.109924 
	C458.065735,258.528900 458.052368,258.697052 458.039001,258.865234 
	C457.220123,257.586060 455.887115,256.385559 455.677002,255.013184 
	C454.998688,250.582382 454.475128,246.094635 454.365967,241.617264 
	C454.173126,233.708420 451.354004,227.477478 443.963043,223.367615 
z"/>
<path fill="#94D590" opacity="1.000000" stroke="none" 
	d="
M483.837860,244.958832 
	C483.493835,241.710205 483.149841,238.461563 482.850555,234.374420 
	C481.945618,231.033325 480.995972,228.530746 480.046326,226.028168 
	C480.046326,226.028168 479.982941,225.994980 480.001160,225.643295 
	C479.472412,224.505661 478.925415,223.719727 478.378418,222.933777 
	C478.228088,222.570053 478.077759,222.206329 477.896240,221.221222 
	C477.107971,219.700714 476.350861,218.801605 475.593781,217.902481 
	C474.745972,216.605652 473.898163,215.308823 472.973358,213.332611 
	C472.959045,212.392960 473.021729,212.132721 473.084412,211.872498 
	C476.562225,217.701462 480.994507,223.187271 483.248383,229.456299 
	C485.484619,235.676193 485.527313,242.684738 486.110229,249.485733 
	C485.071564,248.068985 484.454712,246.513916 483.837860,244.958832 
z"/>
<path fill="#9FD79F" opacity="1.000000" stroke="none" 
	d="
M457.974060,472.900757 
	C461.175323,472.506561 462.227661,470.807068 462.124786,467.524506 
	C461.875275,459.560730 462.259979,451.574280 461.909393,443.618164 
	C461.806519,441.283539 460.094391,439.019867 459.057556,436.362610 
	C459.742371,435.892670 460.489471,435.783752 461.750061,436.156006 
	C462.803284,438.860199 463.753723,441.073181 463.808563,443.308105 
	C464.000488,451.127441 464.065369,458.960754 463.788513,466.774963 
	C463.686707,469.648468 462.500092,472.483582 461.808289,475.336182 
	C461.444427,475.396118 461.080597,475.456116 460.337158,475.177673 
	C459.296387,474.193054 458.635223,473.546906 457.974060,472.900757 
z"/>
<path fill="#71C571" opacity="1.000000" stroke="none" 
	d="
M462.155029,475.451080 
	C462.500092,472.483582 463.686707,469.648468 463.788513,466.774963 
	C464.065369,458.960754 464.000488,451.127441 463.808563,443.308105 
	C463.753723,441.073181 462.803284,438.860199 462.124023,436.272125 
	C463.102478,437.068970 465.158966,438.205078 465.191681,439.396790 
	C465.486267,450.119812 465.529999,460.854492 465.337250,471.580139 
	C465.313110,472.925323 463.490875,474.238159 462.155029,475.451080 
z"/>
<path fill="#ABDBA3" opacity="1.000000" stroke="none" 
	d="
M483.657776,245.393127 
	C484.454712,246.513916 485.071564,248.068985 485.947449,249.854233 
	C486.276123,251.772522 486.345825,253.460617 485.925568,255.659180 
	C483.606659,256.774414 481.788574,257.857880 479.946899,257.899536 
	C472.684113,258.063690 465.413940,257.900696 458.146484,257.859100 
	C458.085052,257.509521 458.023621,257.159912 457.941223,256.547211 
	C464.536957,256.287659 471.163605,256.072632 477.766815,256.372772 
	C482.063873,256.568115 483.994781,255.239548 483.398956,250.774353 
	C483.183197,249.157669 483.437744,247.478226 483.657776,245.393127 
z"/>
<path fill="#71C571" opacity="1.000000" stroke="none" 
	d="
M298.002472,452.418579 
	C304.353638,451.912262 310.747406,451.774811 317.746399,451.972778 
	C319.251740,452.931702 320.151855,453.555176 321.052002,454.178650 
	C313.383026,453.714905 305.714050,453.251190 298.002472,452.418579 
z"/>
<path fill="#71C571" opacity="1.000000" stroke="none" 
	d="
M62.333992,438.970886 
	C62.829758,449.500427 62.987743,460.203339 63.105408,471.683136 
	C63.425587,473.442291 63.786091,474.424561 64.146591,475.406799 
	C63.311546,474.447845 61.756214,473.492401 61.751530,472.529358 
	C61.697388,461.401672 61.877968,450.272797 62.333992,438.970886 
z"/>
<path fill="#9FD79F" opacity="1.000000" stroke="none" 
	d="
M96.028297,110.685532 
	C96.503479,110.055473 97.088737,109.576561 97.560379,109.670166 
	C105.859177,111.317085 114.144096,113.033897 122.692627,115.279350 
	C122.940613,116.019760 122.927994,116.216385 122.915382,116.412994 
	C122.180435,116.320442 121.445488,116.227882 120.156815,115.847420 
	C118.748894,115.636734 117.894691,115.713959 117.040497,115.791183 
	C115.678947,115.735413 114.317406,115.679634 112.430061,115.265450 
	C111.215157,114.643326 110.526054,114.379616 109.836952,114.115906 
	C105.253136,113.111649 100.669312,112.107391 96.028297,110.685532 
z"/>
<path fill="#94D590" opacity="1.000000" stroke="none" 
	d="
M458.112793,258.109924 
	C465.413940,257.900696 472.684113,258.063690 479.946899,257.899536 
	C481.788574,257.857880 483.606659,256.774414 485.818237,256.070068 
	C486.990509,259.196350 484.910553,259.672729 482.534790,259.657776 
	C474.577850,259.607666 466.621399,259.487030 458.351868,259.129333 
	C458.052368,258.697052 458.065735,258.528900 458.112793,258.109924 
z"/>
<path fill="#9FD79F" opacity="1.000000" stroke="none" 
	d="
M161.325089,456.989746 
	C162.327759,456.003845 163.727493,454.592957 165.208893,454.501190 
	C171.730774,454.097351 178.276245,454.074066 184.888718,454.213959 
	C184.964279,454.515015 185.294937,454.746979 184.779358,454.897430 
	C180.173935,455.709930 176.084076,456.371948 171.994232,457.033966 
	C168.582733,457.079987 165.171249,457.125977 161.325089,456.989746 
z"/>
<path fill="#94D590" opacity="1.000000" stroke="none" 
	d="
M447.014496,200.504501 
	C441.024750,200.971344 434.883728,201.117828 428.302124,201.057465 
	C434.062561,196.840683 440.445709,198.022415 447.014496,200.504501 
z"/>
<path fill="#9FD79F" opacity="1.000000" stroke="none" 
	d="
M344.915466,454.689697 
	C351.263306,455.133301 357.611145,455.576904 364.054626,456.373047 
	C361.739655,456.883179 359.329041,457.040680 356.158020,456.881958 
	C351.903534,455.940399 348.409485,455.315033 344.915466,454.689697 
z"/>
<path fill="#9FD79F" opacity="1.000000" stroke="none" 
	d="
M206.745514,451.552795 
	C206.495560,452.398193 205.793289,453.122375 204.978973,454.073914 
	C201.754913,454.361664 198.642899,454.422028 195.102264,454.270508 
	C197.635864,449.153687 202.412933,452.275848 206.745514,451.552795 
z"/>
<path fill="#9FD79F" opacity="1.000000" stroke="none" 
	d="
M321.501038,454.261169 
	C320.151855,453.555176 319.251740,452.931702 318.163025,452.031036 
	C322.622101,452.253571 327.269775,452.753296 331.962128,453.624207 
	C328.654572,454.111511 325.302338,454.227631 321.501038,454.261169 
z"/>
<path fill="#71C571" opacity="1.000000" stroke="none" 
	d="
M380.175293,458.820862 
	C383.144073,459.045654 386.112823,459.270447 389.605713,459.830505 
	C391.103973,460.836792 392.078094,461.507843 393.052216,462.178894 
	C388.583832,461.522949 384.115448,460.867004 379.505859,459.789307 
	C379.639374,459.191925 379.909576,459.009674 380.175293,458.820862 
z"/>
<path fill="#71C571" opacity="1.000000" stroke="none" 
	d="
M137.187042,459.675629 
	C140.158157,459.401123 143.129272,459.126617 146.873413,459.022461 
	C147.909088,459.315765 148.171753,459.438782 148.434402,459.561829 
	C143.828247,460.552429 139.222107,461.543060 134.442352,462.106689 
	C135.241516,461.011688 136.214279,460.343658 137.187042,459.675629 
z"/>
<path fill="#71C571" opacity="1.000000" stroke="none" 
	d="
M344.577942,454.642456 
	C348.409485,455.315033 351.903534,455.940399 355.707184,456.830627 
	C351.356689,457.181671 346.435699,459.517365 342.249908,455.119324 
	C342.912292,454.691345 343.576355,454.643280 344.577942,454.642456 
z"/>
<path fill="#9FD79F" opacity="1.000000" stroke="none" 
	d="
M402.978699,462.505920 
	C407.618469,462.884705 412.273376,463.493591 417.019470,464.455017 
	C416.022583,464.937805 414.934479,465.068054 413.151703,464.876770 
	C409.574371,464.082703 406.691742,463.610199 403.809082,463.137695 
	C403.491241,463.097412 403.219482,462.963531 402.978699,462.505920 
z"/>
<path fill="#9FD79F" opacity="1.000000" stroke="none" 
	d="
M110.285500,465.021637 
	C111.680290,463.968536 113.371689,462.685211 115.243210,462.316742 
	C117.959785,461.781830 120.806412,461.907349 123.825806,462.041321 
	C124.159752,462.700409 124.028305,462.938446 123.027138,463.052795 
	C119.592598,463.732147 116.790604,464.404144 113.988617,465.076141 
	C112.879944,465.117523 111.771278,465.158905 110.285500,465.021637 
z"/>
<path fill="#9FD79F" opacity="1.000000" stroke="none" 
	d="
M142.919464,419.729736 
	C141.467194,424.200500 137.691925,422.158081 134.395477,422.209106 
	C135.140701,421.148834 136.161316,420.463684 137.181915,419.778564 
	C138.961700,419.691315 140.741501,419.604095 142.919464,419.729736 
z"/>
<path fill="#71C571" opacity="1.000000" stroke="none" 
	d="
M172.342072,457.228149 
	C176.084076,456.371948 180.173935,455.709930 184.686447,455.076752 
	C182.901566,455.922180 180.748734,457.008942 178.469299,457.470398 
	C176.621796,457.844391 174.622101,457.466644 172.342072,457.228149 
z"/>
<path fill="#9FD79F" opacity="1.000000" stroke="none" 
	d="
M379.999756,458.511414 
	C379.909576,459.009674 379.639374,459.191925 379.213867,459.559082 
	C377.369568,459.717682 375.676086,459.684723 373.468750,459.296356 
	C372.341187,458.609253 371.727448,458.277527 371.113739,457.945831 
	C371.113739,457.945831 370.833710,457.603821 370.896271,457.391846 
	C373.913940,457.520569 376.869080,457.861267 379.999756,458.511414 
z"/>
<path fill="#9FD79F" opacity="1.000000" stroke="none" 
	d="
M129.979218,422.685364 
	C126.508759,423.592529 123.038292,424.499664 119.425400,424.989319 
	C119.915756,423.937592 120.548546,423.303406 121.181351,422.669220 
	C122.207451,422.497467 123.233543,422.325684 124.867264,422.362122 
	C126.315544,422.379272 127.156197,422.188141 127.996841,421.997009 
	C128.415314,421.871216 128.833786,421.745392 129.599121,421.860138 
	C129.957047,422.295593 129.968124,422.490479 129.979218,422.685364 
z"/>
<path fill="#71C571" opacity="1.000000" stroke="none" 
	d="
M95.811615,430.348724 
	C94.116394,430.572876 92.421173,430.796997 89.982452,430.951904 
	C88.666237,430.732697 88.093529,430.582764 87.520813,430.432861 
	C90.801857,429.437317 94.082901,428.441772 97.643417,427.794312 
	C97.219131,428.877869 96.515373,429.613312 95.811615,430.348724 
z"/>
<path fill="#9FD79F" opacity="1.000000" stroke="none" 
	d="
M127.850677,115.677750 
	C130.298370,116.256058 132.746063,116.834358 135.269348,117.736931 
	C133.910400,118.209145 132.475861,118.357101 130.493896,118.180725 
	C129.247894,117.130188 128.549286,116.403969 127.850677,115.677750 
z"/>
<path fill="#9FD79F" opacity="1.000000" stroke="none" 
	d="
M148.769287,459.590454 
	C148.171753,459.438782 147.909088,459.315765 147.245117,459.024353 
	C149.767639,458.146790 152.691513,457.437683 155.852005,457.016510 
	C156.088623,457.304443 156.317932,457.678070 155.906937,457.856567 
	C154.942627,458.498108 154.389328,458.961121 153.836014,459.424164 
	C152.258743,459.489105 150.681458,459.554077 148.769287,459.590454 
z"/>
<path fill="#9FD79F" opacity="1.000000" stroke="none" 
	d="
M442.981323,470.538788 
	C446.505646,470.861542 450.227264,471.474640 454.035767,472.433899 
	C453.350159,472.912170 452.577667,473.044312 451.144592,472.856750 
	C448.259064,472.070648 446.034119,471.604218 443.809174,471.137817 
	C443.598969,471.034912 443.388763,470.932007 442.981323,470.538788 
z"/>
<path fill="#9FD79F" opacity="1.000000" stroke="none" 
	d="
M84.744629,107.684959 
	C87.230545,108.254883 89.716454,108.824799 92.275192,109.723030 
	C90.955688,110.192734 89.563370,110.334122 87.620155,110.176224 
	C86.294380,109.146278 85.519508,108.415619 84.744629,107.684959 
z"/>
<path fill="#71C571" opacity="1.000000" stroke="none" 
	d="
M127.454941,115.576622 
	C128.549286,116.403969 129.247894,117.130188 130.063538,118.082916 
	C127.840935,117.888336 125.501305,117.467232 123.038528,116.729568 
	C122.927994,116.216385 122.940613,116.019760 122.967079,115.528015 
	C124.340355,115.313766 125.699783,115.394630 127.454941,115.576622 
z"/>
<path fill="#9FD79F" opacity="1.000000" stroke="none" 
	d="
M136.777679,459.520782 
	C136.214279,460.343658 135.241516,461.011688 134.103714,461.941742 
	C132.216034,462.264526 130.493408,462.325256 128.381805,462.191101 
	C130.784683,461.119476 133.576508,460.242706 136.777679,459.520782 
z"/>
<path fill="#9FD79F" opacity="1.000000" stroke="none" 
	d="
M73.209885,472.992737 
	C75.670601,468.613251 80.067467,470.248779 84.049576,470.027618 
	C84.098755,470.489929 83.971275,470.680634 83.126450,470.965027 
	C79.934685,471.737366 77.460258,472.416077 74.985832,473.094788 
	C74.499313,473.122742 74.012802,473.150665 73.209885,472.992737 
z"/>
<path fill="#9FD79F" opacity="1.000000" stroke="none" 
	d="
M444.197937,432.506500 
	C441.076324,432.061981 438.071991,431.433105 434.988556,430.469696 
	C435.372894,430.042175 435.836304,429.949219 436.795135,430.137054 
	C437.845276,430.359375 438.400055,430.300934 438.954803,430.242493 
	C439.683228,430.275330 440.411652,430.308197 441.610199,430.707306 
	C442.743500,431.369232 443.406677,431.664917 444.069855,431.960602 
	C444.069855,431.960602 444.315247,432.322174 444.197937,432.506500 
z"/>
<path fill="#9FD79F" opacity="1.000000" stroke="none" 
	d="
M79.760429,432.984436 
	C76.861954,434.212463 73.617821,435.232635 70.160919,435.970459 
	C69.839394,435.316559 69.970253,435.074677 70.945709,434.956207 
	C73.371994,434.265656 75.193275,433.581299 77.014557,432.896912 
	C77.814621,432.856781 78.614700,432.816681 79.760429,432.984436 
z"/>
<path fill="#9FD79F" opacity="1.000000" stroke="none" 
	d="
M114.748291,425.021545 
	C111.797279,426.169952 108.472816,427.117920 105.092018,427.775452 
	C105.035683,427.484985 104.704903,427.252686 105.173752,427.109497 
	C107.431732,426.287567 109.220863,425.608826 111.010002,424.930084 
	C112.131607,424.893738 113.253220,424.857391 114.748291,425.021545 
z"/>
<path fill="#94D590" opacity="1.000000" stroke="none" 
	d="
M468.537781,209.318237 
	C468.537781,209.318237 468.243530,209.274368 467.983551,208.893433 
	C466.829773,208.002487 465.935974,207.492447 465.042175,206.982422 
	C464.874115,206.930786 464.706085,206.879150 464.193665,206.437210 
	C463.183136,205.716217 462.516968,205.385529 461.850769,205.054840 
	C461.850769,205.054840 461.696442,204.604004 461.824554,204.403198 
	C464.601440,205.565598 467.250214,206.928818 469.610229,208.706757 
	C469.060242,209.187073 468.799011,209.252655 468.537781,209.318237 
z"/>
<path fill="#9FD79F" opacity="1.000000" stroke="none" 
	d="
M393.468811,462.262939 
	C392.078094,461.507843 391.103973,460.836792 389.969788,459.920166 
	C392.527985,460.183167 395.246246,460.691803 398.005493,461.566833 
	C396.659454,462.071167 395.272461,462.209076 393.468811,462.262939 
z"/>
<path fill="#9FD79F" opacity="1.000000" stroke="none" 
	d="
M420.945435,464.777618 
	C424.272461,465.582703 427.599487,466.387756 431.008484,467.528870 
	C430.626953,467.958038 430.163422,468.051178 429.048492,467.823486 
	C427.419250,467.561127 426.441437,467.619629 425.463593,467.678101 
	C424.847748,467.621399 424.231934,467.564667 423.189941,467.093475 
	C422.157684,466.045227 421.551544,465.411438 420.945435,464.777618 
z"/>
<path fill="#71C571" opacity="1.000000" stroke="none" 
	d="
M114.308563,465.260986 
	C116.790604,464.404144 119.592598,463.732147 122.806847,463.110107 
	C120.355583,463.921997 117.492050,464.683929 114.308563,465.260986 
z"/>
<path fill="#71C571" opacity="1.000000" stroke="none" 
	d="
M130.370758,422.697937 
	C129.968124,422.490479 129.957047,422.295593 129.923080,421.808594 
	C132.088211,420.829865 134.276215,420.143219 136.823074,419.617554 
	C136.161316,420.463684 135.140701,421.148834 133.986328,422.063660 
	C132.822479,422.432404 131.792389,422.571472 130.370758,422.697937 
z"/>
<path fill="#9FD79F" opacity="1.000000" stroke="none" 
	d="
M456.284607,435.370239 
	C453.115448,434.979156 450.092255,434.432770 446.973511,433.553833 
	C447.648376,433.074707 448.418823,432.928101 449.833466,433.110962 
	C452.371735,433.922180 454.265808,434.403931 456.159882,434.885651 
	C456.159882,434.885651 456.430573,435.214935 456.284607,435.370239 
z"/>
<path fill="#71C571" opacity="1.000000" stroke="none" 
	d="
M403.950806,463.464844 
	C406.691742,463.610199 409.574371,464.082703 412.736725,464.823975 
	C410.041779,464.659149 407.067139,464.225586 403.950806,463.464844 
z"/>
<path fill="#9FD79F" opacity="1.000000" stroke="none" 
	d="
M64.474945,475.507385 
	C63.786091,474.424561 63.425587,473.442291 63.103168,472.140442 
	C64.889427,472.037842 66.637604,472.254822 68.564728,472.871704 
	C68.102867,473.972351 67.462059,474.673035 66.821243,475.373718 
	C66.148598,475.451813 65.475945,475.529907 64.474945,475.507385 
z"/>
<path fill="#94D590" opacity="1.000000" stroke="none" 
	d="
M459.457703,203.032104 
	C458.833923,203.423981 458.256378,203.477371 457.144836,203.138763 
	C455.079987,202.495651 453.549164,202.244553 452.018341,201.993439 
	C452.018341,201.993439 451.777649,201.627335 451.875244,201.431213 
	C454.483246,201.721283 456.993622,202.207458 459.457703,203.032104 
z"/>
<path fill="#71C571" opacity="1.000000" stroke="none" 
	d="
M92.202652,467.771912 
	C93.207382,467.613342 94.212105,467.454742 95.620857,467.601074 
	C96.036781,468.101105 96.048668,468.296204 96.060547,468.491272 
	C94.218575,469.185913 92.376602,469.880585 90.311165,470.213531 
	C90.792686,469.158508 91.497665,468.465210 92.202652,467.771912 
z"/>
<path fill="#71C571" opacity="1.000000" stroke="none" 
	d="
M75.294136,473.277313 
	C77.460258,472.416077 79.934685,471.737366 82.814133,471.109375 
	C80.680252,471.926666 78.141342,472.693237 75.294136,473.277313 
z"/>
<path fill="#9FD79F" opacity="1.000000" stroke="none" 
	d="
M96.390793,468.436523 
	C96.048668,468.296204 96.036781,468.101105 96.005775,467.613586 
	C98.869308,466.574982 101.751945,465.828796 105.063286,465.230347 
	C105.491989,465.378052 105.818825,465.638336 105.366913,465.929993 
	C104.599037,466.597900 104.283066,466.974152 103.967102,467.350464 
	C103.050667,467.445160 102.134224,467.539856 100.545036,467.492676 
	C99.249313,467.567535 98.626328,467.784271 98.003342,468.000977 
	C97.575897,468.127899 97.148460,468.254852 96.390793,468.436523 
z"/>
<path fill="#71C571" opacity="1.000000" stroke="none" 
	d="
M110.721794,424.759155 
	C109.220863,425.608826 107.431732,426.287567 105.266823,426.930115 
	C106.738564,426.125366 108.586075,425.356812 110.721794,424.759155 
z"/>
<path fill="#9FD79F" opacity="1.000000" stroke="none" 
	d="
M91.878120,467.627899 
	C91.497665,468.465210 90.792686,469.158508 89.977264,470.075317 
	C89.037102,470.346008 88.207367,470.393158 87.024857,470.213379 
	C88.299255,469.152283 89.926422,468.318085 91.878120,467.627899 
z"/>
<path fill="#9FD79F" opacity="1.000000" stroke="none" 
	d="
M434.941528,467.758423 
	C436.710388,468.308075 438.479248,468.857697 440.299866,469.699951 
	C439.564667,470.169891 438.777740,470.347229 437.445068,470.182983 
	C436.246704,469.147064 435.594116,468.452759 434.941528,467.758423 
z"/>
<path fill="#9FD79F" opacity="1.000000" stroke="none" 
	d="
M87.211060,430.387878 
	C88.093529,430.582764 88.666237,430.732697 89.670593,430.983521 
	C87.857620,431.831604 85.613007,432.578857 83.162422,433.067810 
	C82.956451,432.809540 82.824341,432.389557 83.283012,432.172424 
	C84.172615,431.508820 84.603539,431.062347 85.034470,430.615875 
	C85.656754,430.524902 86.279022,430.433929 87.211060,430.387878 
z"/>
<path fill="#71C571" opacity="1.000000" stroke="none" 
	d="
M443.942261,471.455597 
	C446.034119,471.604218 448.259064,472.070648 450.746948,472.794800 
	C448.698395,472.626129 446.386871,472.199768 443.942261,471.455597 
z"/>
<path fill="#9FD79F" opacity="1.000000" stroke="none" 
	d="
M431.058472,430.241577 
	C429.289612,429.691956 427.520752,429.142334 425.700134,428.300049 
	C426.435333,427.830078 427.222260,427.652740 428.554932,427.817017 
	C429.753296,428.852966 430.405884,429.547272 431.058472,430.241577 
z"/>
<path fill="#9FD79F" opacity="1.000000" stroke="none" 
	d="
M96.141396,430.470764 
	C96.515373,429.613312 97.219131,428.877869 98.028755,427.909332 
	C98.964340,427.626984 99.794075,427.577759 100.974434,427.760437 
	C99.707100,428.859161 98.089134,429.725983 96.141396,430.470764 
z"/>
<path fill="#71C571" opacity="1.000000" stroke="none" 
	d="
M434.539825,467.685242 
	C435.594116,468.452759 436.246704,469.147064 437.036743,470.090271 
	C435.121826,469.812897 433.069427,469.286591 430.990051,468.402161 
	C432.021454,467.900085 433.079773,467.756073 434.539825,467.685242 
z"/>
<path fill="#71C571" opacity="1.000000" stroke="none" 
	d="
M431.460175,430.314758 
	C430.405884,429.547272 429.753296,428.852966 428.963257,427.909698 
	C430.878174,428.187073 432.930573,428.713409 435.009949,429.597778 
	C433.978546,430.099884 432.920227,430.243896 431.460175,430.314758 
z"/>
<path fill="#71C571" opacity="1.000000" stroke="none" 
	d="
M76.735397,432.728119 
	C75.193275,433.581299 73.371994,434.265656 71.167770,434.896362 
	C72.675285,434.081573 74.565758,433.320465 76.735397,432.728119 
z"/>
<path fill="#71C571" opacity="1.000000" stroke="none" 
	d="
M456.034088,434.578247 
	C454.265808,434.403931 452.371735,433.922180 450.231506,433.177368 
	C451.959656,433.366516 453.933990,433.818695 456.034088,434.578247 
z"/>
<path fill="#55BF55" opacity="1.000000" stroke="none" 
	d="
M84.451736,107.598587 
	C85.519508,108.415619 86.294380,109.146278 87.196136,110.112396 
	C85.583122,109.874496 83.843224,109.401138 81.953247,108.617599 
	C82.078682,108.121201 82.354187,107.934975 82.788803,107.556671 
	C83.351555,107.413811 83.755196,107.463020 84.451736,107.598587 
z"/>
<path fill="#9FD79F" opacity="1.000000" stroke="none" 
	d="
M67.670853,435.822144 
	C66.543449,437.005280 65.075584,437.998840 63.234035,438.934387 
	C62.789688,438.446991 62.719025,438.017609 63.110378,437.269928 
	C64.055779,436.588684 64.539169,436.225769 65.022552,435.862854 
	C65.791832,435.786102 66.561104,435.709320 67.670853,435.822144 
z"/>
<path fill="#ABDBA3" opacity="1.000000" stroke="none" 
	d="
M468.684540,209.625824 
	C468.799011,209.252655 469.060242,209.187073 469.713226,209.022827 
	C470.274536,209.015427 470.444153,209.106674 470.827789,209.640808 
	C471.473572,210.408905 471.905334,210.734116 472.337067,211.059311 
	C472.494690,211.164368 472.652283,211.269409 472.947144,211.623474 
	C473.021729,212.132721 472.959045,212.392960 472.803009,213.045181 
	C471.416901,212.269241 470.124084,211.101334 468.684540,209.625824 
z"/>
<path fill="#71C571" opacity="1.000000" stroke="none" 
	d="
M457.604248,472.851776 
	C458.635223,473.546906 459.296387,474.193054 460.071014,475.089752 
	C458.793945,474.858887 457.403412,474.377472 455.931824,473.565826 
	C456.311981,473.091370 456.773224,472.947083 457.604248,472.851776 
z"/>
<path fill="#71C571" opacity="1.000000" stroke="none" 
	d="
M120.862061,422.517426 
	C120.548546,423.303406 119.915756,423.937592 119.135468,424.807007 
	C118.497681,425.082916 118.007393,425.123627 117.194412,424.980988 
	C118.095406,423.986969 119.319092,423.176300 120.862061,422.517426 
z"/>
<path fill="#71C571" opacity="1.000000" stroke="none" 
	d="
M420.573242,464.748718 
	C421.551544,465.411438 422.157684,466.045227 422.900330,466.981689 
	C421.685730,466.799194 420.334595,466.313995 418.915588,465.538055 
	C419.298828,465.071472 419.749908,464.895630 420.573242,464.748718 
z"/>
<path fill="#71C571" opacity="1.000000" stroke="none" 
	d="
M67.138733,475.478790 
	C67.462059,474.673035 68.102867,473.972351 68.901291,473.024200 
	C69.551964,472.791290 70.045029,472.805817 70.842911,473.034027 
	C69.917236,474.026428 68.686729,474.805145 67.138733,475.478790 
z"/>
<path fill="#71C571" opacity="1.000000" stroke="none" 
	d="
M117.231316,115.986679 
	C117.894691,115.713959 118.748894,115.636734 119.796280,115.761589 
	C119.133698,116.036507 118.277916,116.109344 117.231316,115.986679 
z"/>
<path fill="#55BF55" opacity="1.000000" stroke="none" 
	d="
M76.845123,107.669212 
	C77.632744,107.434967 78.552055,107.454681 79.734207,107.707619 
	C78.990303,107.934952 77.983551,107.929062 76.845123,107.669212 
z"/>
<path fill="#71C571" opacity="1.000000" stroke="none" 
	d="
M127.766548,421.851135 
	C127.156197,422.188141 126.315544,422.379272 125.260239,422.389404 
	C125.875801,422.040680 126.706024,421.872955 127.766548,421.851135 
z"/>
<path fill="#71C571" opacity="1.000000" stroke="none" 
	d="
M425.670227,467.863342 
	C426.441437,467.619629 427.419250,467.561127 428.692871,467.732697 
	C427.951385,467.991394 426.914124,468.020020 425.670227,467.863342 
z"/>
<path fill="#71C571" opacity="1.000000" stroke="none" 
	d="
M443.987488,431.653839 
	C443.406677,431.664917 442.743500,431.369232 441.958679,430.818787 
	C442.526428,430.825043 443.215790,431.086060 443.987488,431.653839 
z"/>
<path fill="#71C571" opacity="1.000000" stroke="none" 
	d="
M438.820923,430.055725 
	C438.400055,430.300934 437.845276,430.359375 437.150452,430.228760 
	C437.569244,429.982788 438.128143,429.925842 438.820923,430.055725 
z"/>
<path fill="#71C571" opacity="1.000000" stroke="none" 
	d="
M98.195557,468.137451 
	C98.626328,467.784271 99.249313,467.567535 100.198769,467.477539 
	C99.812752,467.827484 99.100258,468.050720 98.195557,468.137451 
z"/>
<path fill="#71C571" opacity="1.000000" stroke="none" 
	d="
M84.816727,430.492706 
	C84.603539,431.062347 84.172615,431.508820 83.423332,432.002838 
	C83.602982,431.490082 84.100983,430.929810 84.816727,430.492706 
z"/>
<path fill="#71C571" opacity="1.000000" stroke="none" 
	d="
M109.954666,114.409241 
	C110.526054,114.379616 111.215157,114.643326 112.033829,115.165359 
	C111.466385,115.183304 110.769379,114.942932 109.954666,114.409241 
z"/>
<path fill="#71C571" opacity="1.000000" stroke="none" 
	d="
M64.818405,435.697815 
	C64.539169,436.225769 64.055779,436.588684 63.256821,436.962158 
	C63.498924,436.492767 64.056595,436.012787 64.818405,435.697815 
z"/>
<path fill="#71C571" opacity="1.000000" stroke="none" 
	d="
M104.141068,467.474396 
	C104.283066,466.974152 104.599037,466.597900 105.277626,466.118835 
	C105.198509,466.543488 104.756783,467.070923 104.141068,467.474396 
z"/>
<path fill="#94D590" opacity="1.000000" stroke="none" 
	d="
M472.381195,210.812714 
	C471.905334,210.734116 471.473572,210.408905 470.990845,209.879272 
	C471.434998,209.971954 471.930176,210.269043 472.381195,210.812714 
z"/>
<path fill="#71C571" opacity="1.000000" stroke="none" 
	d="
M371.177246,458.247589 
	C371.727448,458.277527 372.341187,458.609253 373.060791,459.190399 
	C372.524689,459.143005 371.882721,458.846161 371.177246,458.247589 
z"/>
<path fill="#71C571" opacity="1.000000" stroke="none" 
	d="
M154.129868,459.542542 
	C154.389328,458.961121 154.942627,458.498108 155.782852,458.037231 
	C155.521088,458.579895 154.972412,459.120392 154.129868,459.542542 
z"/>
<path fill="#9FD79F" opacity="1.000000" stroke="none" 
	d="
M296.357513,452.103760 
	C296.002533,451.845764 296.004181,451.674500 296.002960,451.246338 
	C296.707947,451.109436 297.415833,451.229401 298.107727,451.606842 
	C297.632568,451.973053 297.173340,452.081757 296.357513,452.103760 
z"/>
<path fill="#AFDBAF" opacity="1.000000" stroke="none" 
	d="
M274.000000,122.989044 
	C289.801727,122.691467 305.102783,122.349945 320.405518,122.117523 
	C326.713898,122.021706 327.003265,122.365791 327.003876,128.499222 
	C327.013184,222.119644 327.013031,315.740082 327.004944,409.360504 
	C327.004364,415.947205 326.703217,415.871338 320.114624,415.299011 
	C313.493958,414.723877 306.809174,414.739532 300.152802,414.748016 
	C270.336182,414.786041 240.519669,414.913208 210.703140,415.012390 
	C209.704514,415.015686 208.641418,414.848083 207.717728,415.124939 
	C200.227051,417.370178 198.141159,415.520508 198.155350,406.523773 
	C198.300064,314.736023 198.243576,222.947922 198.244400,131.159927 
	C198.244476,122.242607 198.488022,121.983170 207.605194,122.100021 
	C229.570312,122.381554 251.535095,122.690910 274.000000,122.989044 
M324.638428,326.500183 
	C324.638214,261.686249 324.638031,196.872314 324.637451,132.058380 
	C324.637421,130.725449 324.571320,129.389297 324.641937,128.060257 
	C324.802216,125.043694 323.318848,123.695023 320.419373,123.984962 
	C316.628021,124.364098 312.847351,125.331139 309.069855,125.291908 
	C275.629578,124.944656 242.190292,124.475571 208.752518,123.930939 
	C201.279465,123.809212 201.278412,123.607513 201.278336,131.055847 
	C201.277344,223.028580 201.277634,315.001312 201.278488,406.974030 
	C201.278503,408.306915 200.844986,409.886444 201.411514,410.908844 
	C202.084366,412.123138 203.666977,413.723938 204.777786,413.666138 
	C215.024414,413.133179 225.243454,411.910156 235.491714,411.608337 
	C248.476608,411.225861 261.483459,411.366486 274.476868,411.555786 
	C288.929077,411.766296 303.382202,412.150391 317.824097,412.729370 
	C324.642853,413.002747 324.636230,413.288635 324.636963,406.476776 
	C324.639740,380.151245 324.639191,353.825745 324.638428,326.500183 
z"/>
<path fill="#9FD79F" opacity="1.000000" stroke="none" 
	d="
M230.817566,450.856995 
	C230.470673,451.200439 229.942490,451.394165 229.235626,451.441101 
	C229.583405,451.098602 230.109833,450.902924 230.817566,450.856995 
z"/>
<path fill="#07AE08" opacity="1.000000" stroke="none" 
	d="
M92.258163,219.327805 
	C92.652397,219.408707 93.046638,219.489594 93.899612,219.898361 
	C95.816513,221.016296 97.270103,221.814972 98.733719,222.594818 
	C103.239151,224.995453 106.637192,228.703369 107.077049,233.662277 
	C107.762360,241.388428 107.582359,249.207748 107.463806,256.982941 
	C107.385307,262.131775 104.526985,266.179779 99.786514,267.549652 
	C93.836464,269.269073 87.556465,269.940125 81.370728,270.635437 
	C80.572449,270.725159 78.675758,268.266846 78.658035,266.970093 
	C78.460381,252.501892 78.566055,238.029861 78.502174,223.559235 
	C78.489830,220.763702 79.662895,219.732498 82.390175,219.748993 
	C85.678535,219.768860 88.968750,219.481934 92.258163,219.327805 
z"/>
<path fill="#9AD69A" opacity="1.000000" stroke="none" 
	d="
M92.072441,219.030640 
	C88.968750,219.481934 85.678535,219.768860 82.390175,219.748993 
	C79.662895,219.732498 78.489830,220.763702 78.502174,223.559235 
	C78.566055,238.029861 78.460381,252.501892 78.658035,266.970093 
	C78.675758,268.266846 80.572449,270.725159 81.370728,270.635437 
	C87.556465,269.940125 93.836464,269.269073 99.786514,267.549652 
	C104.526985,266.179779 107.385307,262.131775 107.463806,256.982941 
	C107.582359,249.207748 107.762360,241.388428 107.077049,233.662277 
	C106.637192,228.703369 103.239151,224.995453 98.733719,222.594818 
	C97.270103,221.814972 95.816513,221.016296 94.201752,219.908875 
	C98.943207,219.149902 105.480209,223.303833 107.729401,228.975220 
	C111.302643,237.985199 112.170784,247.469086 110.027206,256.879669 
	C107.326317,268.736938 101.231277,271.381714 89.259071,272.647369 
	C73.805122,274.281097 76.116486,273.947296 76.014740,260.876312 
	C75.922867,249.075516 75.990105,237.273422 75.997459,225.471909 
	C76.002220,217.837952 76.890846,216.886124 84.681862,217.210464 
	C87.100426,217.311157 89.486031,218.203552 92.072441,219.030640 
z"/>
<path fill="#ABDBA3" opacity="1.000000" stroke="none" 
	d="
M480.029846,226.425995 
	C480.995972,228.530746 481.945618,231.033325 482.844757,233.933258 
	C481.867279,231.828339 480.940308,229.326096 480.029846,226.425995 
z"/>
<path fill="#ABDBA3" opacity="1.000000" stroke="none" 
	d="
M452.161682,202.284943 
	C453.549164,202.244553 455.079987,202.495651 456.856995,203.058960 
	C455.503815,203.106247 453.904449,202.841354 452.161682,202.284943 
z"/>
<path fill="#ABDBA3" opacity="1.000000" stroke="none" 
	d="
M419.278259,203.548645 
	C420.082672,202.951050 421.225098,202.470657 422.717438,202.023376 
	C421.917023,202.592926 420.766632,203.129379 419.278259,203.548645 
z"/>
<path fill="#ABDBA3" opacity="1.000000" stroke="none" 
	d="
M475.532196,218.210815 
	C476.350861,218.801605 477.107971,219.700714 477.852203,220.928391 
	C477.049774,220.344345 476.260193,219.431747 475.532196,218.210815 
z"/>
<path fill="#ABDBA3" opacity="1.000000" stroke="none" 
	d="
M478.318329,223.255997 
	C478.925415,223.719727 479.472412,224.505661 480.013977,225.609879 
	C479.425110,225.144836 478.841675,224.361526 478.318329,223.255997 
z"/>
<path fill="#ABDBA3" opacity="1.000000" stroke="none" 
	d="
M465.161499,207.284363 
	C465.935974,207.492447 466.829773,208.002487 467.861694,208.808136 
	C467.093445,208.597946 466.187134,208.092133 465.161499,207.284363 
z"/>
<path fill="#ABDBA3" opacity="1.000000" stroke="none" 
	d="
M461.953735,205.342560 
	C462.516968,205.385529 463.183136,205.716217 463.961456,206.312256 
	C463.401276,206.261841 462.728973,205.946060 461.953735,205.342560 
z"/>
<path fill="#ABDBA3" opacity="1.000000" stroke="none" 
	d="
M412.202759,206.404114 
	C412.410919,205.896103 412.892365,205.468475 413.629181,205.013840 
	C413.415039,205.486053 412.945557,205.985291 412.202759,206.404114 
z"/>
<path fill="#94D590" opacity="1.000000" stroke="none" 
	d="
M389.004059,253.986420 
	C388.991913,253.993057 389.059174,254.081909 389.047119,254.018005 
	C389.035065,253.954117 389.016205,253.979782 389.004059,253.986420 
z"/>
<path fill="#04AD04" opacity="1.000000" stroke="none" 
	d="
M324.639160,327.000183 
	C324.639191,353.825745 324.639740,380.151245 324.636963,406.476776 
	C324.636230,413.288635 324.642853,413.002747 317.824097,412.729370 
	C303.382202,412.150391 288.929077,411.766296 274.476868,411.555786 
	C261.483459,411.366486 248.476608,411.225861 235.491714,411.608337 
	C225.243454,411.910156 215.024414,413.133179 204.777786,413.666138 
	C203.666977,413.723938 202.084366,412.123138 201.411514,410.908844 
	C200.844986,409.886444 201.278503,408.306915 201.278488,406.974030 
	C201.277634,315.001312 201.277344,223.028580 201.278336,131.055847 
	C201.278412,123.607513 201.279465,123.809212 208.752518,123.930939 
	C242.190292,124.475571 275.629578,124.944656 309.069855,125.291908 
	C312.847351,125.331139 316.628021,124.364098 320.419373,123.984962 
	C323.318848,123.695023 324.802216,125.043694 324.641937,128.060257 
	C324.571320,129.389297 324.637421,130.725449 324.637451,132.058380 
	C324.638031,196.872314 324.638214,261.686249 324.639160,327.000183 
M267.683136,220.158966 
	C268.109955,220.255707 268.536804,220.352448 269.110321,221.092285 
	C274.213654,224.532822 277.554626,229.039261 278.257507,235.368668 
	C278.364166,236.329041 279.830292,237.138474 280.927765,237.981049 
	C280.927765,237.981049 281.189484,238.004318 280.776459,238.850327 
	C280.874634,243.902237 280.972809,248.954132 280.596375,254.432373 
	C281.875671,255.570480 283.117767,257.640472 284.440430,257.693329 
	C292.199371,258.003418 299.987579,258.054626 307.740326,257.672791 
	C309.420807,257.590027 312.340179,255.410904 312.367401,254.147354 
	C312.447418,250.432098 311.360321,246.691727 310.601624,242.109726 
	C310.511841,239.593491 310.422058,237.077255 310.713013,233.730042 
	C309.483337,229.376511 308.578583,224.892487 306.902039,220.718460 
	C305.897400,218.217239 303.686401,216.200546 301.898041,213.285172 
	C297.607452,207.856918 293.380463,202.350845 286.061493,199.856369 
	C285.341583,199.693924 284.621643,199.531464 283.188324,198.999283 
	C280.849182,198.522507 278.510071,198.045731 275.936432,196.833817 
	C274.158447,196.777298 272.380463,196.720779 269.932068,196.594788 
	C269.260681,196.521454 268.589294,196.448135 267.438446,195.694412 
	C259.717346,194.449707 252.212112,195.068054 244.461594,198.401138 
	C244.092056,198.442551 243.722504,198.483963 242.746277,198.244736 
	C242.083466,198.814987 241.420654,199.385239 240.267181,200.285385 
	C239.506821,200.482925 238.746445,200.680450 237.511032,200.458435 
	C234.984955,202.284943 232.458878,204.111450 229.645035,206.175018 
	C229.645035,206.175018 229.326309,206.368454 228.640244,206.256592 
	C228.225159,206.951141 227.810089,207.645706 227.022263,208.806564 
	C226.332077,209.522354 225.641891,210.238159 224.263351,211.031097 
	C223.450607,211.824966 222.467255,212.505234 221.851288,213.430161 
	C214.969513,223.763412 211.870560,235.638397 211.458344,247.582153 
	C210.599045,272.480072 211.031738,297.430298 211.342392,322.353943 
	C211.399689,326.951019 213.383911,331.524109 214.574707,336.715271 
	C214.619293,337.120178 214.663864,337.525055 214.271225,338.489288 
	C216.268112,348.109253 219.843948,356.881470 227.958984,363.974579 
	C232.722610,366.784180 237.254395,370.159454 242.318863,372.234955 
	C246.854706,374.093903 251.718323,376.598358 257.853729,374.219147 
	C261.109100,374.234741 264.364502,374.250305 268.474731,374.689575 
	C273.393616,375.376068 277.968933,374.566803 282.772766,371.600708 
	C283.653656,370.907837 284.534546,370.214935 285.928955,369.353455 
	C286.257782,369.206726 286.586639,369.059998 287.642761,369.199188 
	C294.538025,367.068726 299.075256,362.025299 302.694427,356.246948 
	C308.444763,347.065887 311.138031,336.899933 311.750305,325.743683 
	C312.391815,321.259399 313.459412,316.779083 313.501678,312.289185 
	C313.524048,309.911713 312.336426,306.884583 307.664490,307.616577 
	C299.917938,307.627106 292.171417,307.637604 283.724335,307.311829 
	C281.748901,307.263031 279.769592,307.210968 281.251129,311.057098 
	C281.327240,316.416687 281.403381,321.776306 281.159576,327.730377 
	C281.009949,328.152863 280.860321,328.575348 280.040619,329.140656 
	C279.082123,331.737061 277.820496,334.265747 277.222626,336.942688 
	C275.501465,344.648926 270.043610,349.303894 262.111603,349.061279 
	C259.238586,348.973419 256.389099,348.116577 252.918747,347.380554 
	C251.833755,346.361786 250.748764,345.343018 249.763443,343.606110 
	C248.835190,342.415833 247.906937,341.225555 246.796112,339.395386 
	C246.672012,338.742035 246.547913,338.088715 246.722183,336.689026 
	C245.921631,335.079010 245.121078,333.468964 244.162674,331.154144 
	C244.118500,330.434875 244.074326,329.715637 244.513809,328.332428 
	C244.631836,327.518158 244.852493,326.703979 244.853043,325.889648 
	C244.871933,298.192383 244.880615,270.495117 244.836441,242.797943 
	C244.834427,241.533524 244.329056,240.269913 244.072113,238.250214 
	C244.186905,237.504837 244.301697,236.759476 245.034637,235.879517 
	C245.428116,234.263916 245.821579,232.648315 246.298172,230.371841 
	C247.189163,228.906616 248.080170,227.441376 249.643433,225.917862 
	C250.423965,224.937714 251.204514,223.957565 252.307770,222.771866 
	C252.307770,222.771866 252.667068,222.640274 253.416428,222.824982 
	C254.615463,221.862244 255.814499,220.899506 257.606903,219.621780 
	C258.048859,219.619476 258.490814,219.617157 259.399902,220.256653 
	C261.942322,220.208481 264.484741,220.160294 267.683136,220.158966 
z"/>
<path fill="#FEFFFE" opacity="1.000000" stroke="none" 
	d="
M286.915466,368.913269 
	C286.586639,369.059998 286.257782,369.206726 285.307861,369.239380 
	C284.137665,369.159821 283.588623,369.194305 282.705627,369.171570 
	C281.581360,369.713470 280.791016,370.312622 279.629211,371.021179 
	C277.171021,371.385071 275.084229,371.639618 272.671448,371.641998 
	C265.403656,371.487274 258.461914,371.584717 251.167511,371.667053 
	C249.879471,371.546295 248.944092,371.440704 247.794067,371.040649 
	C241.927551,368.284241 236.275681,365.822357 230.459503,363.288208 
	C230.295212,363.215912 230.010956,362.996643 229.979767,362.676758 
	C229.306183,361.894623 228.663773,361.432373 227.895203,360.850586 
	C227.769043,360.731049 227.587555,360.434601 227.645905,360.071289 
	C225.011612,354.379089 222.355972,349.030853 219.586685,343.742126 
	C219.169128,342.944672 218.221420,342.424866 217.422882,341.489319 
	C217.263397,340.803802 217.199966,340.405548 217.361023,339.720001 
	C216.591537,334.946625 215.597565,330.460571 214.559509,325.601532 
	C214.457932,323.981384 214.400436,322.734192 214.542114,321.014191 
	C214.806381,297.654938 214.877838,274.768494 214.909668,251.882034 
	C214.910767,251.088654 214.516098,250.294708 214.297424,249.111755 
	C214.399048,247.159576 214.509140,245.596680 214.918915,243.789886 
	C215.822510,239.353104 216.426453,235.160217 217.069702,230.667114 
	C217.218918,229.978897 217.328812,229.590912 217.749222,229.066132 
	C219.508957,225.117569 220.958176,221.305771 222.479904,217.237366 
	C222.694717,216.655365 222.836990,216.329956 223.321381,215.963226 
	C228.920090,211.580887 234.067627,207.096786 239.486084,202.968201 
	C241.701492,201.280167 244.503021,200.361374 247.364639,199.007767 
	C250.315536,198.724747 252.939728,198.526581 256.033020,198.524567 
	C261.479401,198.597336 266.456696,198.473938 271.789856,198.370453 
	C273.098969,198.441071 274.052185,198.491760 275.215515,198.848053 
	C281.457947,202.035477 288.348785,203.875732 293.355560,208.002029 
	C306.364502,218.723267 307.548431,234.528900 308.883087,249.908310 
	C308.968109,250.887772 306.587250,252.948135 305.259888,253.032532 
	C299.641327,253.389755 293.981659,253.037460 288.348419,253.248718 
	C284.790619,253.382156 283.981598,251.838333 283.703674,248.551788 
	C283.402496,244.990570 282.071411,241.516434 281.189484,238.004318 
	C281.189484,238.004318 280.927765,237.981049 281.002747,237.666016 
	C281.068359,236.563354 281.058990,235.775711 281.298706,234.729385 
	C281.806244,229.867050 280.849274,225.918396 275.781494,223.847870 
	C275.042999,223.090515 274.477753,222.576889 273.929962,221.754135 
	C273.260590,221.096970 272.573792,220.748947 271.598328,220.326187 
	C270.575256,219.973694 269.840820,219.695923 268.957306,219.220947 
	C268.274017,218.811340 267.739777,218.598923 266.794312,218.548080 
	C263.899628,219.011383 261.416199,219.313110 258.932770,219.614838 
	C258.490814,219.617157 258.048859,219.619476 257.181519,219.565369 
	C256.263824,219.554321 255.771515,219.599716 254.939484,219.499329 
	C247.428528,221.529037 242.826508,227.753174 243.447006,234.538544 
	C243.370605,234.742981 243.186508,235.138733 242.935684,235.115631 
	C242.823486,235.370605 242.962112,235.648666 243.092316,235.935883 
	C243.083878,235.945053 243.099350,235.912384 242.876068,236.238922 
	C242.109360,238.223297 241.097321,239.879715 241.092209,241.539230 
	C241.004868,269.990631 240.736267,298.447937 241.248749,326.890594 
	C241.391617,334.819855 243.751556,342.763885 250.125061,348.625397 
	C254.275070,352.441986 260.838043,353.802979 264.452148,351.392853 
	C272.390320,350.511963 276.877258,346.045105 279.411804,338.769287 
	C279.956970,336.993958 280.244263,335.457489 280.594757,333.507507 
	C280.675507,331.728607 280.693085,330.363220 280.710663,328.997833 
	C280.860321,328.575348 281.009949,328.152863 281.696625,327.385345 
	C282.811981,325.645935 283.803131,324.276581 283.889587,322.852356 
	C284.129547,318.899780 283.993011,314.924347 284.468445,310.878601 
	C292.811890,310.799225 300.692139,310.799225 309.917816,310.799225 
	C308.817108,321.375183 308.618958,331.148773 306.605194,340.532715 
	C304.348663,351.048279 299.283203,360.387054 289.308899,366.075592 
	C288.299835,366.651093 287.703400,367.950043 286.915466,368.913269 
z"/>
<path fill="#9DD58C" opacity="1.000000" stroke="none" 
	d="
M287.279114,369.056213 
	C287.703400,367.950043 288.299835,366.651093 289.308899,366.075592 
	C299.283203,360.387054 304.348663,351.048279 306.605194,340.532715 
	C308.618958,331.148773 308.817108,321.375183 309.917816,310.799225 
	C300.692139,310.799225 292.811890,310.799225 284.209778,310.839294 
	C282.989960,310.758179 282.492004,310.636993 282.066803,310.194397 
	C282.901337,309.131378 283.663116,308.389740 284.424866,307.648102 
	C292.171417,307.637604 299.917938,307.627106 308.263733,307.943542 
	C309.572784,310.388580 310.698669,312.467896 310.900208,314.633270 
	C311.251343,318.405640 311.032684,322.231110 311.052856,326.034302 
	C311.138031,336.899933 308.444763,347.065887 302.694427,356.246948 
	C299.075256,362.025299 294.538025,367.068726 287.279114,369.056213 
z"/>
<path fill="#4BC164" opacity="1.000000" stroke="none" 
	d="
M217.438690,229.202911 
	C217.328812,229.590912 217.218918,229.978897 216.761810,230.890472 
	C215.816132,235.620636 215.217697,239.827225 214.619247,244.033798 
	C214.509140,245.596680 214.399048,247.159576 214.023163,249.384735 
	C213.528381,251.175705 213.102066,252.303970 213.099548,253.433182 
	C213.052002,274.739899 213.030518,296.046814 213.102371,317.353333 
	C213.107010,318.732605 213.910858,320.109161 214.342957,321.487000 
	C214.400436,322.734192 214.457932,323.981384 214.377655,325.925201 
	C214.319504,329.783966 214.399124,332.946136 214.478729,336.108276 
	C213.383911,331.524109 211.399689,326.951019 211.342392,322.353943 
	C211.031738,297.430298 210.599045,272.480072 211.458344,247.582153 
	C211.870560,235.638397 214.969513,223.763412 221.851288,213.430161 
	C222.467255,212.505234 223.450607,211.824966 224.619354,211.342285 
	C224.309998,213.103851 223.644638,214.554199 222.979279,216.004562 
	C222.836990,216.329956 222.694717,216.655365 222.168335,217.376648 
	C220.335739,221.582672 218.887222,225.392792 217.438690,229.202911 
z"/>
<path fill="#BCE2B6" opacity="1.000000" stroke="none" 
	d="
M280.982971,238.427322 
	C282.071411,241.516434 283.402496,244.990570 283.703674,248.551788 
	C283.981598,251.838333 284.790619,253.382156 288.348419,253.248718 
	C293.981659,253.037460 299.641327,253.389755 305.259888,253.032532 
	C306.587250,252.948135 308.968109,250.887772 308.883087,249.908310 
	C307.548431,234.528900 306.364502,218.723267 293.355560,208.002029 
	C288.348785,203.875732 281.457947,202.035477 275.393738,198.664978 
	C275.631592,197.973862 275.901276,197.771408 276.170929,197.568954 
	C278.510071,198.045731 280.849182,198.522507 283.656891,199.448303 
	C284.817078,200.084579 285.508698,200.271851 286.200317,200.459106 
	C293.380463,202.350845 297.607452,207.856918 301.899170,213.994049 
	C303.670746,218.407318 305.551453,222.064224 307.175568,225.831726 
	C308.398285,228.667999 309.292053,231.646072 310.332275,234.561020 
	C310.422058,237.077255 310.511841,239.593491 310.516174,242.851562 
	C310.517395,246.231827 310.894867,248.906952 310.568512,251.493271 
	C310.404388,252.793915 308.947815,254.993332 308.099060,254.982330 
	C299.087036,254.865463 290.079651,254.385834 281.071014,254.006042 
	C280.972809,248.954132 280.874634,243.902237 280.982971,238.427322 
z"/>
<path fill="#AED686" opacity="1.000000" stroke="none" 
	d="
M264.113098,351.425842 
	C260.838043,353.802979 254.275070,352.441986 250.125061,348.625397 
	C243.751556,342.763885 241.391617,334.819855 241.248749,326.890594 
	C240.736267,298.447937 241.004868,269.990631 241.092209,241.539230 
	C241.097321,239.879715 242.109360,238.223297 243.208466,236.223755 
	C243.981583,235.926086 244.199051,235.970093 244.416504,236.014114 
	C244.301697,236.759476 244.186905,237.504837 243.838104,238.968933 
	C243.429947,241.497955 243.106827,243.308060 243.104065,245.118637 
	C243.064468,270.980530 243.045731,296.842590 243.103394,322.704407 
	C243.108078,324.802399 243.707245,326.899078 244.030151,328.996368 
	C244.074326,329.715637 244.118500,330.434875 244.148758,331.857452 
	C244.897827,334.185638 245.660828,335.810486 246.423813,337.435364 
	C246.547913,338.088715 246.672012,338.742035 246.863785,340.052856 
	C247.842224,341.914948 248.752991,343.119598 249.663773,344.324249 
	C250.748764,345.343018 251.833755,346.361786 253.396240,347.795349 
	C257.286865,349.282013 260.699982,350.353943 264.113098,351.425842 
z"/>
<path fill="#45BA36" opacity="1.000000" stroke="none" 
	d="
M244.271988,328.664398 
	C243.707245,326.899078 243.108078,324.802399 243.103394,322.704407 
	C243.045731,296.842590 243.064468,270.980530 243.104065,245.118637 
	C243.106827,243.308060 243.429947,241.497955 243.831100,239.346786 
	C244.329056,240.269913 244.834427,241.533524 244.836441,242.797943 
	C244.880615,270.495117 244.871933,298.192383 244.853043,325.889648 
	C244.852493,326.703979 244.631836,327.518158 244.271988,328.664398 
z"/>
<path fill="#45BA36" opacity="1.000000" stroke="none" 
	d="
M280.833679,254.219208 
	C290.079651,254.385834 299.087036,254.865463 308.099060,254.982330 
	C308.947815,254.993332 310.404388,252.793915 310.568512,251.493271 
	C310.894867,248.906952 310.517395,246.231827 310.580444,243.277283 
	C311.360321,246.691727 312.447418,250.432098 312.367401,254.147354 
	C312.340179,255.410904 309.420807,257.590027 307.740326,257.672791 
	C299.987579,258.054626 292.199371,258.003418 284.440430,257.693329 
	C283.117767,257.640472 281.875671,255.570480 280.833679,254.219208 
z"/>
<path fill="#45BA36" opacity="1.000000" stroke="none" 
	d="
M264.452148,351.392853 
	C260.699982,350.353943 257.286865,349.282013 253.701309,347.910370 
	C256.389099,348.116577 259.238586,348.973419 262.111603,349.061279 
	C270.043610,349.303894 275.501465,344.648926 277.222626,336.942688 
	C277.820496,334.265747 279.082123,331.737061 280.375641,329.069244 
	C280.693085,330.363220 280.675507,331.728607 280.307678,333.573212 
	C279.689606,335.704346 279.421783,337.356262 279.153992,339.008179 
	C276.877258,346.045105 272.390320,350.511963 264.452148,351.392853 
z"/>
<path fill="#4BC164" opacity="1.000000" stroke="none" 
	d="
M248.008713,371.335114 
	C248.944092,371.440704 249.879471,371.546295 251.383255,371.931824 
	C253.636978,372.888794 255.322296,373.565887 257.007629,374.242981 
	C251.718323,376.598358 246.854706,374.093903 242.318863,372.234955 
	C237.254395,370.159454 232.722610,366.784180 227.951935,363.521851 
	C227.944885,363.069092 228.248413,362.753815 228.537857,362.836700 
	C229.221848,362.945282 229.616409,362.970978 230.010956,362.996643 
	C230.010956,362.996643 230.295212,363.215912 230.562317,363.614563 
	C235.813385,368.195923 241.243225,371.332428 248.008713,371.335114 
z"/>
<path fill="#B6E5CC" opacity="1.000000" stroke="none" 
	d="
M223.321381,215.963226 
	C223.644638,214.554199 224.309998,213.103851 224.963531,211.303711 
	C225.641891,210.238159 226.332077,209.522354 227.500977,208.514938 
	C228.428558,207.605026 228.877426,206.986740 229.326309,206.368454 
	C229.326309,206.368454 229.645035,206.175018 230.141632,206.062958 
	C233.087509,204.259918 235.536789,202.568954 237.986084,200.877991 
	C238.746445,200.680450 239.506821,200.482925 240.832565,200.154358 
	C242.049622,199.524017 242.701294,199.024704 243.352966,198.525375 
	C243.722504,198.483963 244.092056,198.442551 244.951630,198.520248 
	C245.973740,198.790451 246.505829,198.941544 247.037918,199.092621 
	C244.503021,200.361374 241.701492,201.280167 239.486084,202.968201 
	C234.067627,207.096786 228.920090,211.580887 223.321381,215.963226 
z"/>
<path fill="#B6E5CC" opacity="1.000000" stroke="none" 
	d="
M257.430664,374.231079 
	C255.322296,373.565887 253.636978,372.888794 251.735901,371.946960 
	C258.461914,371.584717 265.403656,371.487274 272.466675,371.922546 
	C270.931946,373.058807 269.275909,373.662354 267.619873,374.265900 
	C264.364502,374.250305 261.109100,374.234741 257.430664,374.231079 
z"/>
<path fill="#4BC164" opacity="1.000000" stroke="none" 
	d="
M217.136536,340.007294 
	C217.199966,340.405548 217.263397,340.803802 217.325653,341.861572 
	C219.319244,349.309357 221.371460,356.064789 227.587555,360.434601 
	C227.587555,360.434601 227.769043,360.731049 227.868195,361.152863 
	C228.061035,361.967712 228.154724,362.360779 228.248413,362.753815 
	C228.248413,362.753815 227.944885,363.069092 227.792343,363.228455 
	C219.843948,356.881470 216.268112,348.109253 214.793182,338.334473 
	C215.922272,338.788879 216.529404,339.398071 217.136536,340.007294 
z"/>
<path fill="#4BC164" opacity="1.000000" stroke="none" 
	d="
M247.364639,199.007782 
	C246.505829,198.941544 245.973740,198.790451 245.225311,198.466370 
	C252.212112,195.068054 259.717346,194.449707 267.349304,196.252472 
	C263.361420,197.316513 259.462646,197.822464 255.563904,198.328415 
	C252.939728,198.526581 250.315536,198.724747 247.364639,199.007782 
z"/>
<path fill="#CDEDE4" opacity="1.000000" stroke="none" 
	d="
M281.994019,310.515808 
	C282.492004,310.636993 282.989960,310.758179 283.746582,310.918640 
	C283.993011,314.924347 284.129547,318.899780 283.889587,322.852356 
	C283.803131,324.276581 282.811981,325.645935 281.856567,327.088104 
	C281.403381,321.776306 281.327240,316.416687 281.415466,310.772766 
	C281.579834,310.488464 281.994019,310.515808 281.994019,310.515808 
z"/>
<path fill="#45BA36" opacity="1.000000" stroke="none" 
	d="
M311.401581,325.888977 
	C311.032684,322.231110 311.251343,318.405640 310.900208,314.633270 
	C310.698669,312.467896 309.572784,310.388580 308.699768,307.955902 
	C312.336426,306.884583 313.524048,309.911713 313.501678,312.289185 
	C313.459412,316.779083 312.391815,321.259399 311.401581,325.888977 
z"/>
<path fill="#45BA36" opacity="1.000000" stroke="none" 
	d="
M281.049622,234.988083 
	C281.058990,235.775711 281.068359,236.563354 280.872681,237.684357 
	C279.830292,237.138474 278.364166,236.329041 278.257507,235.368668 
	C277.554626,229.039261 274.213654,224.532822 269.093506,220.515808 
	C269.086609,219.765625 269.096497,219.591888 269.106384,219.418152 
	C269.840820,219.695923 270.575256,219.973694 271.639069,220.620605 
	C272.616455,221.347595 273.264496,221.705429 273.912506,222.063278 
	C274.477753,222.576889 275.042999,223.090515 275.803528,224.199280 
	C277.682434,228.192307 279.366028,231.590195 281.049622,234.988083 
z"/>
<path fill="#45BA36" opacity="1.000000" stroke="none" 
	d="
M310.522644,234.145538 
	C309.292053,231.646072 308.398285,228.667999 307.175568,225.831726 
	C305.551453,222.064224 303.670746,218.407318 301.958923,214.334488 
	C303.686401,216.200546 305.897400,218.217239 306.902039,220.718460 
	C308.578583,224.892487 309.483337,229.376511 310.522644,234.145538 
z"/>
<path fill="#AED686" opacity="1.000000" stroke="none" 
	d="
M243.523407,234.334106 
	C242.826508,227.753174 247.428528,221.529037 254.833435,219.766968 
	C254.267105,221.000336 253.467087,221.820297 252.667053,222.640259 
	C252.667068,222.640274 252.307770,222.771866 251.810699,222.892853 
	C250.532822,224.001282 249.751999,224.988708 248.971161,225.976135 
	C248.080170,227.441376 247.189163,228.906616 245.980103,230.852875 
	C244.949142,232.333969 244.236267,233.334030 243.523407,234.334106 
z"/>
<path fill="#BCE2B6" opacity="1.000000" stroke="none" 
	d="
M256.033020,198.524567 
	C259.462646,197.822464 263.361420,197.316513 267.589050,196.592682 
	C268.589294,196.448135 269.260681,196.521454 270.308533,196.864014 
	C270.934631,197.539001 271.184296,197.944778 271.433960,198.350540 
	C266.456696,198.473938 261.479401,198.597336 256.033020,198.524567 
z"/>
<path fill="#4BC164" opacity="1.000000" stroke="none" 
	d="
M268.047302,374.477722 
	C269.275909,373.662354 270.931946,373.058807 272.792725,372.174744 
	C275.084229,371.639618 277.171021,371.385071 279.936951,371.117249 
	C281.044312,371.081543 281.472565,371.059082 281.928101,371.172852 
	C281.955444,371.309113 282.042450,371.573059 282.042450,371.573059 
	C277.968933,374.566803 273.393616,375.376068 268.047302,374.477722 
z"/>
<path fill="#B6E5CC" opacity="1.000000" stroke="none" 
	d="
M217.361023,339.720001 
	C216.529404,339.398071 215.922272,338.788879 215.011795,338.054810 
	C214.663864,337.525055 214.619293,337.120178 214.526733,336.411774 
	C214.399124,332.946136 214.319504,329.783966 214.421738,326.298157 
	C215.597565,330.460571 216.591537,334.946625 217.361023,339.720001 
z"/>
<path fill="#4BC164" opacity="1.000000" stroke="none" 
	d="
M237.748550,200.668213 
	C235.536789,202.568954 233.087509,204.259918 230.285522,205.944427 
	C232.458878,204.111450 234.984955,202.284943 237.748550,200.668213 
z"/>
<path fill="#45BA36" opacity="1.000000" stroke="none" 
	d="
M259.166321,219.935730 
	C261.416199,219.313110 263.899628,219.011383 266.677826,218.972961 
	C266.990784,219.528214 267.008972,219.820175 267.027161,220.112122 
	C264.484741,220.160294 261.942322,220.208481 259.166321,219.935730 
z"/>
<path fill="#4BC164" opacity="1.000000" stroke="none" 
	d="
M271.789856,198.370453 
	C271.184296,197.944778 270.934631,197.539001 270.643738,196.898743 
	C272.380463,196.720779 274.158447,196.777298 276.053680,197.201385 
	C275.901276,197.771408 275.631592,197.973862 275.183685,198.359375 
	C274.052185,198.491760 273.098969,198.441071 271.789856,198.370453 
z"/>
<path fill="#45BA36" opacity="1.000000" stroke="none" 
	d="
M243.446991,234.538544 
	C244.236267,233.334030 244.949142,232.333969 245.938538,231.183319 
	C245.821579,232.648315 245.428116,234.263916 244.725586,235.946808 
	C244.199051,235.970093 243.981583,235.926086 243.431732,235.897217 
	C243.099350,235.912384 243.083878,235.945053 243.205399,235.748886 
	C243.326920,235.552719 243.186508,235.138733 243.186508,235.138733 
	C243.186508,235.138733 243.370605,234.742981 243.446991,234.538544 
z"/>
<path fill="#45BA36" opacity="1.000000" stroke="none" 
	d="
M246.572998,337.062195 
	C245.660828,335.810486 244.897827,334.185638 244.227692,332.209839 
	C245.121078,333.468964 245.921631,335.079010 246.572998,337.062195 
z"/>
<path fill="#45BA36" opacity="1.000000" stroke="none" 
	d="
M253.041748,222.732620 
	C253.467087,221.820297 254.267105,221.000336 255.173157,219.912735 
	C255.771515,219.599716 256.263824,219.554321 256.884827,219.722855 
	C255.814499,220.899506 254.615463,221.862244 253.041748,222.732620 
z"/>
<path fill="#45BA36" opacity="1.000000" stroke="none" 
	d="
M282.066803,310.194397 
	C281.994019,310.515808 281.579834,310.488464 281.464264,310.316162 
	C279.769592,307.210968 281.748901,307.263031 284.074585,307.479980 
	C283.663116,308.389740 282.901337,309.131378 282.066803,310.194397 
z"/>
<path fill="#45BA36" opacity="1.000000" stroke="none" 
	d="
M249.713608,343.965179 
	C248.752991,343.119598 247.842224,341.914948 246.955078,340.372772 
	C247.906937,341.225555 248.835190,342.415833 249.713608,343.965179 
z"/>
<path fill="#45BA36" opacity="1.000000" stroke="none" 
	d="
M249.307312,225.947006 
	C249.751999,224.988708 250.532822,224.001282 251.649353,222.995636 
	C251.204514,223.957565 250.423965,224.937714 249.307312,225.947006 
z"/>
<path fill="#4BC164" opacity="1.000000" stroke="none" 
	d="
M243.049622,198.385056 
	C242.701294,199.024704 242.049622,199.524017 241.077881,199.989410 
	C241.420654,199.385239 242.083466,198.814987 243.049622,198.385056 
z"/>
<path fill="#9DD58C" opacity="1.000000" stroke="none" 
	d="
M283.039551,369.228821 
	C283.588623,369.194305 284.137665,369.159821 285.051086,369.323700 
	C284.534546,370.214935 283.653656,370.907837 282.407593,371.586884 
	C282.042450,371.573059 281.955444,371.309113 282.071167,370.942993 
	C282.471100,370.127502 282.755341,369.678162 283.039551,369.228821 
z"/>
<path fill="#4BC164" opacity="1.000000" stroke="none" 
	d="
M228.983276,206.312531 
	C228.877426,206.986740 228.428558,207.605026 227.687347,208.281784 
	C227.810089,207.645706 228.225159,206.951141 228.983276,206.312531 
z"/>
<path fill="#4BC164" opacity="1.000000" stroke="none" 
	d="
M286.130920,200.157745 
	C285.508698,200.271851 284.817078,200.084579 284.013611,199.633179 
	C284.621643,199.531464 285.341583,199.693924 286.130920,200.157745 
z"/>
<path fill="#AED686" opacity="1.000000" stroke="none" 
	d="
M267.355164,220.135544 
	C267.008972,219.820175 266.990784,219.528214 267.089081,218.811371 
	C267.739777,218.598923 268.274017,218.811340 268.957306,219.220963 
	C269.096497,219.591888 269.086609,219.765625 269.020172,220.194275 
	C268.536804,220.352448 268.109955,220.255707 267.355164,220.135544 
z"/>
<path fill="#B6E5CC" opacity="1.000000" stroke="none" 
	d="
M214.542130,321.014191 
	C213.910858,320.109161 213.107010,318.732605 213.102371,317.353333 
	C213.030518,296.046814 213.052002,274.739899 213.099548,253.433182 
	C213.102066,252.303970 213.528381,251.175705 214.031647,249.774017 
	C214.516098,250.294708 214.910767,251.088654 214.909668,251.882034 
	C214.877838,274.768494 214.806381,297.654938 214.542130,321.014191 
z"/>
<path fill="#B6E5CC" opacity="1.000000" stroke="none" 
	d="
M227.645905,360.071289 
	C221.371460,356.064789 219.319244,349.309357 217.421707,342.148834 
	C218.221420,342.424866 219.169128,342.944672 219.586685,343.742126 
	C222.355972,349.030853 225.011612,354.379089 227.645905,360.071289 
z"/>
<path fill="#B6E5CC" opacity="1.000000" stroke="none" 
	d="
M247.794067,371.040649 
	C241.243225,371.332428 235.813385,368.195923 230.726624,363.686859 
	C236.275681,365.822357 241.927551,368.284241 247.794067,371.040649 
z"/>
<path fill="#B6E5CC" opacity="1.000000" stroke="none" 
	d="
M214.918915,243.789886 
	C215.217697,239.827225 215.816132,235.620636 216.722473,231.190704 
	C216.426453,235.160217 215.822510,239.353104 214.918915,243.789886 
z"/>
<path fill="#BCE2B6" opacity="1.000000" stroke="none" 
	d="
M281.298706,234.729385 
	C279.366028,231.590195 277.682434,228.192307 275.976807,224.442993 
	C280.849274,225.918396 281.806244,229.867050 281.298706,234.729385 
z"/>
<path fill="#B6E5CC" opacity="1.000000" stroke="none" 
	d="
M217.749237,229.066132 
	C218.887222,225.392792 220.335739,221.582672 222.095825,217.633270 
	C220.958176,221.305771 219.508957,225.117569 217.749237,229.066132 
z"/>
<path fill="#9DD58C" opacity="1.000000" stroke="none" 
	d="
M279.411804,338.769287 
	C279.421783,337.356262 279.689606,335.704346 280.244507,333.986725 
	C280.244263,335.457489 279.956970,336.993958 279.411804,338.769287 
z"/>
<path fill="#BCE2B6" opacity="1.000000" stroke="none" 
	d="
M273.929962,221.754135 
	C273.264496,221.705429 272.616455,221.347595 271.927704,220.695343 
	C272.573792,220.748947 273.260590,221.096970 273.929962,221.754135 
z"/>
<path fill="#B6E5CC" opacity="1.000000" stroke="none" 
	d="
M282.705627,369.171570 
	C282.755341,369.678162 282.471100,370.127502 282.043823,370.806732 
	C281.472565,371.059082 281.044312,371.081543 280.308350,371.007904 
	C280.791016,370.312622 281.581360,369.713470 282.705627,369.171570 
z"/>
<path fill="#B6E5CC" opacity="1.000000" stroke="none" 
	d="
M228.537857,362.836700 
	C228.154724,362.360779 228.061035,361.967712 227.994354,361.272400 
	C228.663773,361.432373 229.306183,361.894623 229.979767,362.676758 
	C229.616409,362.970978 229.221848,362.945282 228.537857,362.836700 
z"/>
<path fill="#AED686" opacity="1.000000" stroke="none" 
	d="
M242.935684,235.115631 
	C243.186508,235.138733 243.326920,235.552719 243.213837,235.739716 
	C242.962112,235.648666 242.823486,235.370605 242.935684,235.115631 
z"/>
</svg>